<svg width="353" height="235" viewBox="0 0 353 235" fill="none" xmlns="http://www.w3.org/2000/svg">
<path d="M204.454 55.2128C196.11 48.7087 186.629 44.3672 176.548 44.3403L176.498 44.3404L176.451 44.3405C166.37 44.3674 156.89 48.7089 148.545 55.2129C140.199 61.7185 132.923 70.4361 127.222 79.3531C121.522 88.2687 117.362 97.4367 115.278 104.879C114.237 108.594 113.699 111.934 113.772 114.623C113.844 117.257 114.515 119.56 116.234 120.788C118.192 122.187 120.623 122.089 123.266 121.379C125.9 120.672 129.045 119.271 132.663 117.659L132.74 117.625C142.66 113.207 156.78 106.924 176.5 106.914C196.22 106.924 210.339 113.207 220.26 117.625L220.337 117.659C223.955 119.271 227.1 120.672 229.733 121.379C232.377 122.089 234.808 122.187 236.766 120.788C238.484 119.56 239.156 117.257 239.228 114.623C239.301 111.934 238.762 108.594 237.722 104.879C235.638 97.4366 231.478 88.2687 225.778 79.353C220.077 70.436 212.801 61.7184 204.454 55.2128Z" fill="url(#paint0_radial_3570_20513)"/>
<path d="M230.322 120.419L226.096 108.012C225.926 107.511 225.391 107.234 224.884 107.382L214.915 110.296C214.455 110.431 213.964 110.215 213.752 109.785L208.191 98.5039C207.945 98.0046 207.335 97.8073 206.843 98.0676L196.891 103.333C196.48 103.551 195.975 103.453 195.675 103.099L187.178 93.0595C186.79 92.6007 186.085 92.5922 185.686 93.0417L177.072 102.739C176.679 103.181 175.988 103.181 175.595 102.739L166.981 93.0417C166.582 92.5922 165.877 92.6007 165.489 93.0595L156.992 103.099C156.692 103.453 156.186 103.551 155.776 103.333L145.824 98.0676C145.332 97.8073 144.722 98.0046 144.476 98.5039L138.915 109.785C138.703 110.215 138.212 110.431 137.752 110.296L127.783 107.382C127.275 107.234 126.741 107.511 126.571 108.012L122.316 120.506C124.992 119.896 128.292 118.427 132.301 116.641C142.24 112.214 156.537 105.847 176.5 105.837C196.462 105.847 210.76 112.214 220.699 116.641C224.529 118.347 227.711 119.764 230.322 120.419Z" fill="white"/>
<path d="M230.978 90.7247C220.602 69.7778 200.058 45.4807 176.546 45.418L176.5 45.418L176.454 45.4181C152.95 45.4808 132.412 69.7613 122.032 90.7034L130.708 90.3419C131.193 90.3217 131.591 89.9523 131.648 89.4704L133.081 77.2875C133.132 76.8544 133.461 76.506 133.89 76.4302L146.258 74.2476C146.656 74.1775 146.97 73.873 147.053 73.4784L149.919 59.8682C150.042 59.2839 150.651 58.9415 151.214 59.1402L163.366 63.4291C163.697 63.5459 164.065 63.4783 164.332 63.2517L175.605 53.7144C175.973 53.4028 176.512 53.4028 176.881 53.7144L188.152 63.2511C188.42 63.4777 188.788 63.5453 189.119 63.4285L201.271 59.1397C201.834 58.9409 202.443 59.2833 202.566 59.8676L205.431 73.4778C205.514 73.8724 205.829 74.1769 206.226 74.247L218.594 76.4296C219.024 76.5054 219.353 76.8538 219.403 77.2869L220.837 89.4698C220.893 89.9518 221.292 90.3211 221.777 90.3413L230.978 90.7247Z" fill="white"/>
<path d="M136.735 168.163C136.724 168.154 136.715 168.143 136.709 168.129C136.68 168.066 136.666 167.991 136.666 167.904C136.661 163.017 136.658 158.089 136.656 153.12C136.656 153.058 136.631 152.998 136.587 152.954C136.542 152.91 136.481 152.885 136.418 152.885L130.675 152.893C130.641 152.893 130.607 152.899 130.576 152.912C130.544 152.925 130.515 152.944 130.491 152.968C130.467 152.992 130.448 153.02 130.435 153.051C130.422 153.082 130.415 153.116 130.415 153.149V189.779C130.415 189.809 130.421 189.838 130.432 189.865C130.444 189.892 130.461 189.917 130.482 189.937C130.503 189.958 130.528 189.975 130.556 189.986C130.584 189.997 130.613 190.003 130.644 190.003L136.471 190.008C136.507 190.008 136.541 189.994 136.566 189.969C136.592 189.945 136.606 189.911 136.606 189.875C136.608 185.341 136.618 180.789 136.634 176.219C136.643 173.377 138.376 170.792 141.248 170.28C145.765 169.474 148.009 172.163 148.005 176.403C148.001 180.865 147.997 185.306 147.992 189.726C147.992 189.763 147.999 189.799 148.013 189.834C148.028 189.868 148.049 189.899 148.075 189.926C148.102 189.952 148.134 189.973 148.169 189.987C148.204 190.001 148.241 190.008 148.279 190.008H153.947C154.077 190.008 154.142 189.944 154.142 189.816C154.147 184.851 154.16 179.841 154.181 174.789C154.186 173.501 154.022 172.245 153.69 171.019C152.291 165.851 147.73 163.957 142.709 164.796C140.204 165.213 138.541 166.341 136.855 168.153C136.845 168.164 136.833 168.172 136.819 168.177C136.805 168.182 136.79 168.183 136.775 168.181C136.761 168.178 136.747 168.172 136.735 168.163Z" fill="white"/>
<path d="M125.441 179.121C125.272 174.95 123.251 172.08 119.377 170.509C118.46 170.137 117.517 169.844 116.548 169.63C114.597 169.198 112.643 168.78 110.687 168.373C107.89 167.793 105.52 166.414 105.715 163.268C105.966 159.225 110.451 158.196 113.762 158.696C116.528 159.116 118.066 160.689 118.376 163.414C118.381 163.459 118.403 163.501 118.438 163.531C118.472 163.561 118.517 163.578 118.564 163.578L124.661 163.586C124.681 163.586 124.702 163.582 124.721 163.574C124.74 163.566 124.757 163.555 124.771 163.541C124.786 163.526 124.797 163.509 124.805 163.491C124.813 163.472 124.817 163.452 124.816 163.432C124.768 157.815 120.843 154.027 115.419 153.133C113.479 152.814 111.45 152.815 109.331 153.137C105.216 153.763 101.087 156.263 99.7713 160.282C98.4851 164.206 99.3832 169.214 102.972 171.771C104.307 172.723 105.837 173.429 107.562 173.889C108.445 174.124 110.494 174.59 113.707 175.286L113.869 175.321C115.564 175.688 116.846 175.967 117.86 177.004C118.718 177.879 119.087 179.018 118.968 180.422C118.843 181.908 118.112 182.97 116.839 183.759C113.662 185.729 105.42 185.576 105.257 180.293C105.254 180.206 105.217 180.124 105.154 180.064C105.091 180.003 105.006 179.97 104.918 179.97L99.0738 179.983C98.8339 179.984 98.7195 180.102 98.7307 180.337C99.1695 189.17 108.405 191.684 115.736 190.306C121.513 189.218 125.686 185.201 125.441 179.121Z" fill="white"/>
<path d="M214.418 175.334L223.71 165.478C223.74 165.446 223.777 165.42 223.818 165.403C223.858 165.385 223.902 165.376 223.946 165.376L231.202 165.372C231.432 165.372 231.468 165.454 231.309 165.616L222.283 174.892C222.125 175.056 222.105 175.234 222.225 175.426L231.199 189.753C231.304 189.921 231.256 190.005 231.056 190.005H224.507C224.347 190.005 224.225 189.938 224.141 189.803L217.926 179.927C217.907 179.896 217.881 179.87 217.85 179.849C217.819 179.829 217.785 179.816 217.748 179.81C217.712 179.804 217.675 179.806 217.639 179.815C217.603 179.824 217.57 179.841 217.542 179.864C217.485 179.91 217.401 179.991 217.289 180.106C216.419 181.004 215.541 181.896 214.656 182.78C214.502 182.933 214.331 183.153 214.141 183.44C214.107 183.491 214.09 183.547 214.09 183.608L214.092 189.903C214.092 189.931 214.081 189.957 214.061 189.976C214.041 189.996 214.013 190.007 213.985 190.007L208.19 190.005C208.124 190.005 208.06 189.979 208.013 189.933C207.967 189.887 207.94 189.824 207.94 189.759V153.218C207.94 153.13 207.975 153.046 208.038 152.984C208.101 152.922 208.186 152.887 208.274 152.887L213.856 152.891C213.918 152.891 213.977 152.915 214.021 152.958C214.065 153.002 214.09 153.061 214.09 153.122L214.094 175.208C214.094 175.522 214.202 175.564 214.418 175.334Z" fill="white"/>
<path fill-rule="evenodd" clip-rule="evenodd" d="M171.518 190.075C173.34 189.48 174.81 188.363 175.93 186.725C175.939 186.712 175.952 186.702 175.967 186.697C175.981 186.691 175.997 186.69 176.013 186.694C176.028 186.697 176.042 186.706 176.053 186.717C176.063 186.728 176.07 186.743 176.073 186.758L176.451 189.691C176.477 189.899 176.597 190.003 176.811 190.003L181.65 190.008C181.712 190.008 181.771 189.985 181.814 189.942C181.858 189.899 181.882 189.842 181.883 189.781C181.908 185.101 181.906 180.409 181.877 175.703C181.867 174.009 181.781 172.783 181.618 172.024C180.739 167.915 177.627 165.398 173.504 164.805C171.833 164.566 170.082 164.57 168.25 164.818C163.672 165.441 159.843 168.48 159.783 173.266C159.783 173.288 159.787 173.31 159.796 173.331C159.804 173.351 159.817 173.37 159.833 173.386C159.849 173.402 159.868 173.414 159.889 173.423C159.91 173.432 159.933 173.436 159.956 173.436L164.692 173.434C164.792 173.434 164.888 173.396 164.961 173.328C165.033 173.26 165.077 173.167 165.082 173.068C165.202 170.714 167.437 169.526 169.658 169.391C170.89 169.317 171.769 169.342 172.296 169.465C174.928 170.076 176.099 171.751 175.812 174.489C175.807 174.548 175.774 174.58 175.713 174.585C173.166 174.786 170.62 174.984 168.072 175.18C164.101 175.487 159.305 177.54 159.185 182.178L159.184 182.212C159.166 182.975 159.138 184.115 159.331 184.946C159.906 187.409 161.377 189.094 163.743 189.999C166.083 190.895 169.184 190.836 171.518 190.075ZM165.414 182.998C165.568 186.585 170.432 186.516 172.758 185.472C175.466 184.256 176.056 181.649 175.929 178.929C175.928 178.91 175.924 178.892 175.916 178.875C175.908 178.857 175.896 178.842 175.882 178.829C175.868 178.816 175.852 178.806 175.834 178.8C175.815 178.793 175.796 178.79 175.777 178.791C173.64 178.873 171.539 179.051 169.474 179.325C167.379 179.6 165.309 180.55 165.414 182.998Z" fill="white"/>
<path d="M234.125 174.36C233.497 171.867 234.026 169.055 236.019 167.252C237.569 165.85 239.488 165.018 241.775 164.757C243.509 164.559 245.061 164.59 246.432 164.849C250.234 165.574 253.126 168.388 253.257 172.303C253.263 172.511 253.16 172.616 252.947 172.616L247.602 172.617C247.572 172.617 247.542 172.608 247.518 172.589C247.494 172.571 247.477 172.545 247.469 172.516C247.438 172.393 247.409 172.268 247.38 172.143C247.262 171.634 247.143 171.121 246.882 170.711C245.802 169.011 243.309 168.844 241.597 169.463C240.641 169.808 240.043 170.431 239.804 171.333C239.251 173.436 241.016 174.452 242.782 174.84C245.867 175.517 247.896 176.007 248.87 176.313C251.41 177.107 253.334 178.65 253.675 181.348C254.034 184.203 253.224 186.478 251.245 188.172C248.585 190.45 245.005 190.821 241.606 190.579C240.262 190.483 238.924 190.111 237.59 189.463C234.788 188.101 233.287 185.873 233.087 182.78C233.085 182.751 233.089 182.723 233.099 182.695C233.109 182.668 233.124 182.644 233.144 182.623C233.164 182.602 233.189 182.585 233.215 182.574C233.242 182.562 233.271 182.556 233.3 182.556L238.799 182.571C238.851 182.571 238.9 182.59 238.938 182.624C238.976 182.658 238.999 182.704 239.004 182.754C239.347 186.184 243.515 186.538 246.074 185.614C247.896 184.955 248.751 182.479 247 181.206C246.662 180.959 246.2 180.762 245.617 180.614C243.533 180.086 241.445 179.575 239.353 179.083C238.72 178.934 237.942 178.608 237.018 178.107C235.503 177.287 234.549 176.036 234.125 174.36Z" fill="white"/>
<path d="M202.619 165.058C199.274 164.417 195.984 165.613 194.323 168.593C194.312 168.612 194.295 168.628 194.275 168.637C194.255 168.646 194.232 168.649 194.21 168.645C194.189 168.641 194.169 168.63 194.154 168.614C194.139 168.598 194.13 168.578 194.128 168.556L193.785 165.626C193.778 165.567 193.749 165.514 193.705 165.475C193.66 165.436 193.603 165.415 193.543 165.415L188.269 165.422C188.187 165.422 188.108 165.454 188.05 165.512C187.992 165.569 187.959 165.646 187.959 165.727V189.752C187.959 189.818 187.986 189.882 188.034 189.929C188.082 189.976 188.147 190.003 188.214 190.003L193.935 190.008C194.081 190.008 194.154 189.936 194.154 189.79C194.15 185.866 194.152 182.011 194.16 178.227C194.162 177.109 194.248 176.238 194.417 175.616C195.112 173.059 196.818 171.536 199.537 171.047C200.507 170.871 201.673 170.894 202.78 170.916C202.99 170.92 203.199 170.924 203.403 170.927C203.441 170.927 203.479 170.92 203.514 170.906C203.55 170.892 203.582 170.871 203.609 170.845C203.636 170.818 203.658 170.787 203.673 170.752C203.687 170.717 203.695 170.68 203.696 170.642C203.698 170.097 203.691 169.545 203.684 168.991C203.671 167.929 203.658 166.86 203.711 165.808C203.742 165.172 203.353 165.136 202.935 165.098C202.829 165.088 202.722 165.078 202.619 165.058Z" fill="white"/>
<path d="M237.355 50.1595H238.84C239.266 50.1595 239.598 50.047 239.837 49.822C240.073 49.597 240.19 49.2854 240.19 48.8871C240.19 48.4998 240.067 48.19 239.821 47.9576C239.574 47.729 239.242 47.6146 238.823 47.6146H237.355V50.1595ZM237.355 54.2921H235.663V46.309H239.003C239.925 46.309 240.646 46.5358 241.165 46.9895C241.673 47.4395 241.927 48.0609 241.927 48.8539C241.927 49.3739 241.798 49.8349 241.541 50.2369C241.279 50.65 240.919 50.9451 240.459 51.1221L242.163 54.2921H240.246L238.739 51.3711H237.355V54.2921Z" fill="white"/>
<path fill-rule="evenodd" clip-rule="evenodd" d="M238.594 56.4183C241.905 56.4183 244.589 53.7679 244.589 50.4985C244.589 47.229 241.905 44.5786 238.594 44.5786C235.283 44.5786 232.599 47.229 232.599 50.4985C232.599 53.7679 235.283 56.4183 238.594 56.4183ZM238.594 57.9969C242.788 57.9969 246.188 54.6397 246.188 50.4985C246.188 46.3572 242.788 43 238.594 43C234.4 43 231 46.3572 231 50.4985C231 54.6397 234.4 57.9969 238.594 57.9969Z" fill="white"/>
<defs>
<radialGradient id="paint0_radial_3570_20513" cx="0" cy="0" r="1" gradientUnits="userSpaceOnUse" gradientTransform="translate(123.343 116.418) rotate(-5.27741) scale(125.03 202.91)">
<stop offset="0.0609411" stop-color="#00FF94"/>
<stop offset="0.576281" stop-color="#FF00F5"/>
<stop offset="1" stop-color="#FF7A00"/>
</radialGradient>
</defs>
</svg>
