<svg width="111" height="45" viewBox="0 0 111 45" fill="none" xmlns="http://www.w3.org/2000/svg">
<path class="svg-stroke" d="M47.462 12.9149C48.2444 12.3213 49.1996 12 50.1817 12H64.4998C66.985 12 68.9998 14.0147 68.9998 16.5V28.5C68.9998 30.9853 66.985 33 64.4998 33H50.1817C49.1996 33 48.2444 32.6787 47.462 32.0851L39.5529 26.0851C37.1792 24.2844 37.1792 20.7156 39.5529 18.9149L47.462 12.9149Z" stroke="white"/>
<path class="svg-fill" fill-rule="evenodd" clip-rule="evenodd" d="M60.7832 27.4497C61.2388 26.9941 61.2388 26.2554 60.7832 25.7998L57.4835 22.5001L60.7835 19.2001C61.2391 18.7445 61.2391 18.0058 60.7835 17.5502C60.3278 17.0946 59.5891 17.0946 59.1335 17.5502L55.8336 20.8502L52.5336 17.5502C52.078 17.0946 51.3393 17.0946 50.8837 17.5502C50.4281 18.0058 50.4281 18.7445 50.8837 19.2001L54.1837 22.5001L50.884 25.7998C50.4283 26.2554 50.4283 26.9941 50.884 27.4497C51.3396 27.9053 52.0783 27.9053 52.5339 27.4497L55.8336 24.15L59.1333 27.4497C59.5889 27.9053 60.3276 27.9053 60.7832 27.4497Z" fill="white"/>
</svg>
