<svg width="26" height="24" viewBox="0 0 26 24" fill="none" xmlns="http://www.w3.org/2000/svg">
<path d="M4.7039 19.0433L5.08658 18.1194L4.7039 19.0433ZM1.45672 15.7961L2.3806 15.4134L1.45672 15.7961ZM24 12.5C24 13.0523 24.4477 13.5 25 13.5C25.5523 13.5 26 13.0523 26 12.5H24ZM25 19.5L25.7071 20.2071C26.0976 19.8166 26.0976 19.1834 25.7071 18.7929L25 19.5ZM21.2961 1.95672L20.9134 2.8806L21.2961 1.95672ZM24.5433 5.2039L23.6194 5.58658L24.5433 5.2039ZM4.7039 1.95672L5.08658 2.8806L4.7039 1.95672ZM1.45672 5.2039L2.3806 5.58658L1.45672 5.2039ZM1.0403 7.5L0.0416068 7.44891L1.0403 7.5ZM19 10.5C18.4477 10.5 18 10.9477 18 11.5C18 12.0523 18.4477 12.5 19 12.5V10.5ZM21 12.5C21.5523 12.5 22 12.0523 22 11.5C22 10.9477 21.5523 10.5 21 10.5V12.5ZM22.7071 15.7929C22.3166 15.4024 21.6834 15.4024 21.2929 15.7929C20.9024 16.1834 20.9024 16.8166 21.2929 17.2071L22.7071 15.7929ZM21.2929 21.7929C20.9024 22.1834 20.9024 22.8166 21.2929 23.2071C21.6834 23.5976 22.3166 23.5976 22.7071 23.2071L21.2929 21.7929ZM10 2.5H16V0.5H10V2.5ZM16 18.5H10V20.5H16V18.5ZM10 18.5C8.58849 18.5 7.57994 18.4995 6.78514 18.4452C5.99931 18.3916 5.49574 18.2889 5.08658 18.1194L4.32122 19.9672C5.01469 20.2544 5.76134 20.38 6.64899 20.4406C7.52767 20.5005 8.61586 20.5 10 20.5V18.5ZM0 10.5C0 11.8841 -0.000541568 12.9723 0.0594099 13.851C0.119974 14.7387 0.245598 15.4853 0.532843 16.1788L2.3806 15.4134C2.21112 15.0043 2.10839 14.5007 2.05477 13.7149C2.00054 12.9201 2 11.9115 2 10.5H0ZM5.08658 18.1194C3.86144 17.6119 2.88807 16.6386 2.3806 15.4134L0.532843 16.1788C1.2433 17.894 2.60602 19.2567 4.32122 19.9672L5.08658 18.1194ZM16 20.5C16.0113 20.5 16.0226 20.5 16.0339 20.5C16.0452 20.5 16.0565 20.5 16.0677 20.5C16.079 20.5 16.0902 20.5 16.1015 20.5C16.1127 20.5 16.1239 20.5 16.1351 20.5C16.1463 20.5 16.1575 20.5 16.1687 20.5C16.1799 20.5 16.191 20.5 16.2022 20.5C16.2133 20.5 16.2244 20.5 16.2355 20.5C16.2467 20.5 16.2578 20.5 16.2688 20.5C16.2799 20.5 16.291 20.5 16.302 20.5C16.3131 20.5 16.3241 20.5 16.3352 20.5C16.3462 20.5 16.3572 20.5 16.3682 20.5C16.3792 20.5 16.3902 20.5 16.4011 20.5C16.4121 20.5 16.4231 20.5 16.434 20.5C16.4449 20.5 16.4559 20.5 16.4668 20.5C16.4777 20.5 16.4886 20.5 16.4995 20.5C16.5103 20.5 16.5212 20.5 16.5321 20.5C16.5429 20.5 16.5537 20.5 16.5646 20.5C16.5754 20.5 16.5862 20.5 16.597 20.5C16.6078 20.5 16.6186 20.5 16.6293 20.5C16.6401 20.5 16.6508 20.5 16.6616 20.5C16.6723 20.5 16.683 20.5 16.6937 20.5C16.7045 20.5 16.7151 20.5 16.7258 20.5C16.7365 20.5 16.7472 20.5 16.7578 20.5C16.7685 20.5 16.7791 20.5 16.7897 20.5C16.8003 20.5 16.811 20.5 16.8215 20.5C16.8321 20.5 16.8427 20.5 16.8533 20.5C16.8639 20.5 16.8744 20.5 16.8849 20.5C16.8955 20.5 16.906 20.5 16.9165 20.5C16.927 20.5 16.9375 20.5 16.948 20.5C16.9585 20.5 16.9689 20.5 16.9794 20.5C16.9898 20.5 17.0003 20.5 17.0107 20.5C17.0211 20.5 17.0315 20.5 17.0419 20.5C17.0523 20.5 17.0627 20.5 17.0731 20.5C17.0834 20.5 17.0938 20.5 17.1041 20.5C17.1145 20.5 17.1248 20.5 17.1351 20.5C17.1454 20.5 17.1557 20.5 17.166 20.5C17.1763 20.5 17.1866 20.5 17.1968 20.5C17.2071 20.5 17.2173 20.5 17.2275 20.5C17.2378 20.5 17.248 20.5 17.2582 20.5C17.2684 20.5 17.2786 20.5 17.2887 20.5C17.2989 20.5 17.3091 20.5 17.3192 20.5C17.3294 20.5 17.3395 20.5 17.3496 20.5C17.3597 20.5 17.3698 20.5 17.3799 20.5C17.39 20.5 17.4001 20.5 17.4101 20.5C17.4202 20.5 17.4303 20.5 17.4403 20.5C17.4503 20.5 17.4603 20.5 17.4703 20.5C17.4804 20.5 17.4903 20.5 17.5003 20.5C17.5103 20.5 17.5203 20.5 17.5302 20.5C17.5402 20.5 17.5501 20.5 17.56 20.5C17.57 20.5 17.5799 20.5 17.5898 20.5C17.5997 20.5 17.6096 20.5 17.6194 20.5C17.6293 20.5 17.6392 20.5 17.649 20.5C17.6588 20.5 17.6687 20.5 17.6785 20.5C17.6883 20.5 17.6981 20.5 17.7079 20.5C17.7177 20.5 17.7275 20.5 17.7372 20.5C17.747 20.5 17.7567 20.5 17.7665 20.5C17.7762 20.5 17.7859 20.5 17.7956 20.5C17.8053 20.5 17.815 20.5 17.8247 20.5C17.8344 20.5 17.8441 20.5 17.8537 20.5C17.8634 20.5 17.873 20.5 17.8826 20.5C17.8923 20.5 17.9019 20.5 17.9115 20.5C17.9211 20.5 17.9307 20.5 17.9403 20.5C17.9498 20.5 17.9594 20.5 17.9689 20.5C17.9785 20.5 17.988 20.5 17.9975 20.5C18.0071 20.5 18.0166 20.5 18.0261 20.5C18.0356 20.5 18.045 20.5 18.0545 20.5C18.064 20.5 18.0734 20.5 18.0829 20.5C18.0923 20.5 18.1018 20.5 18.1112 20.5C18.1206 20.5 18.13 20.5 18.1394 20.5C18.1488 20.5 18.1581 20.5 18.1675 20.5C18.1769 20.5 18.1862 20.5 18.1956 20.5C18.2049 20.5 18.2142 20.5 18.2235 20.5C18.2328 20.5 18.2421 20.5 18.2514 20.5C18.2607 20.5 18.27 20.5 18.2792 20.5C18.2885 20.5 18.2977 20.5 18.307 20.5C18.3162 20.5 18.3254 20.5 18.3346 20.5C18.3438 20.5 18.353 20.5 18.3622 20.5C18.3714 20.5 18.3806 20.5 18.3897 20.5C18.3989 20.5 18.408 20.5 18.4171 20.5C18.4263 20.5 18.4354 20.5 18.4445 20.5C18.4536 20.5 18.4627 20.5 18.4718 20.5C18.4808 20.5 18.4899 20.5 18.4989 20.5C18.508 20.5 18.517 20.5 18.5261 20.5C18.5351 20.5 18.5441 20.5 18.5531 20.5C18.5621 20.5 18.5711 20.5 18.5801 20.5C18.589 20.5 18.598 20.5 18.607 20.5C18.6159 20.5 18.6248 20.5 18.6338 20.5C18.6427 20.5 18.6516 20.5 18.6605 20.5C18.6694 20.5 18.6783 20.5 18.6872 20.5C18.696 20.5 18.7049 20.5 18.7137 20.5C18.7226 20.5 18.7314 20.5 18.7402 20.5C18.7491 20.5 18.7579 20.5 18.7667 20.5C18.7755 20.5 18.7843 20.5 18.793 20.5C18.8018 20.5 18.8106 20.5 18.8193 20.5C18.8281 20.5 18.8368 20.5 18.8455 20.5C18.8542 20.5 18.8629 20.5 18.8716 20.5C18.8803 20.5 18.889 20.5 18.8977 20.5C18.9064 20.5 18.915 20.5 18.9237 20.5C18.9323 20.5 18.941 20.5 18.9496 20.5C18.9582 20.5 18.9668 20.5 18.9754 20.5C18.984 20.5 18.9926 20.5 19.0012 20.5C19.0097 20.5 19.0183 20.5 19.0269 20.5C19.0354 20.5 19.0439 20.5 19.0525 20.5C19.061 20.5 19.0695 20.5 19.078 20.5C19.0865 20.5 19.095 20.5 19.1035 20.5C19.1119 20.5 19.1204 20.5 19.1288 20.5C19.1373 20.5 19.1457 20.5 19.1542 20.5C19.1626 20.5 19.171 20.5 19.1794 20.5C19.1878 20.5 19.1962 20.5 19.2046 20.5C19.2129 20.5 19.2213 20.5 19.2297 20.5C19.238 20.5 19.2463 20.5 19.2547 20.5C19.263 20.5 19.2713 20.5 19.2796 20.5C19.2879 20.5 19.2962 20.5 19.3045 20.5C19.3128 20.5 19.321 20.5 19.3293 20.5C19.3376 20.5 19.3458 20.5 19.354 20.5C19.3623 20.5 19.3705 20.5 19.3787 20.5C19.3869 20.5 19.3951 20.5 19.4033 20.5C19.4115 20.5 19.4196 20.5 19.4278 20.5C19.436 20.5 19.4441 20.5 19.4522 20.5C19.4604 20.5 19.4685 20.5 19.4766 20.5C19.4847 20.5 19.4928 20.5 19.5009 20.5C19.509 20.5 19.5171 20.5 19.5251 20.5C19.5332 20.5 19.5413 20.5 19.5493 20.5C19.5573 20.5 19.5654 20.5 19.5734 20.5C19.5814 20.5 19.5894 20.5 19.5974 20.5C19.6054 20.5 19.6134 20.5 19.6213 20.5C19.6293 20.5 19.6373 20.5 19.6452 20.5C19.6532 20.5 19.6611 20.5 19.669 20.5C19.6769 20.5 19.6849 20.5 19.6928 20.5C19.7007 20.5 19.7085 20.5 19.7164 20.5C19.7243 20.5 19.7322 20.5 19.74 20.5C19.7479 20.5 19.7557 20.5 19.7635 20.5C19.7714 20.5 19.7792 20.5 19.787 20.5C19.7948 20.5 19.8026 20.5 19.8104 20.5C19.8182 20.5 19.8259 20.5 19.8337 20.5C19.8415 20.5 19.8492 20.5 19.8569 20.5C19.8647 20.5 19.8724 20.5 19.8801 20.5C19.8878 20.5 19.8955 20.5 19.9032 20.5C19.9109 20.5 19.9186 20.5 19.9263 20.5C19.9339 20.5 19.9416 20.5 19.9492 20.5C19.9569 20.5 19.9645 20.5 19.9721 20.5C19.9798 20.5 19.9874 20.5 19.995 20.5C20.0026 20.5 20.0102 20.5 20.0177 20.5C20.0253 20.5 20.0329 20.5 20.0404 20.5C20.048 20.5 20.0555 20.5 20.0631 20.5C20.0706 20.5 20.0781 20.5 20.0856 20.5C20.0931 20.5 20.1006 20.5 20.1081 20.5C20.1156 20.5 20.1231 20.5 20.1306 20.5C20.138 20.5 20.1455 20.5 20.1529 20.5C20.1604 20.5 20.1678 20.5 20.1752 20.5C20.1826 20.5 20.19 20.5 20.1974 20.5C20.2048 20.5 20.2122 20.5 20.2196 20.5C20.227 20.5 20.2343 20.5 20.2417 20.5C20.249 20.5 20.2564 20.5 20.2637 20.5C20.2711 20.5 20.2784 20.5 20.2857 20.5C20.293 20.5 20.3003 20.5 20.3076 20.5C20.3149 20.5 20.3221 20.5 20.3294 20.5C20.3367 20.5 20.3439 20.5 20.3512 20.5C20.3584 20.5 20.3656 20.5 20.3729 20.5C20.3801 20.5 20.3873 20.5 20.3945 20.5C20.4017 20.5 20.4089 20.5 20.4161 20.5C20.4232 20.5 20.4304 20.5 20.4376 20.5C20.4447 20.5 20.4519 20.5 20.459 20.5C20.4661 20.5 20.4732 20.5 20.4804 20.5C20.4875 20.5 20.4946 20.5 20.5017 20.5C20.5087 20.5 20.5158 20.5 20.5229 20.5C20.53 20.5 20.537 20.5 20.5441 20.5C20.5511 20.5 20.5582 20.5 20.5652 20.5C20.5722 20.5 20.5792 20.5 20.5862 20.5C20.5932 20.5 20.6002 20.5 20.6072 20.5C20.6142 20.5 20.6212 20.5 20.6281 20.5C20.6351 20.5 20.642 20.5 20.649 20.5C20.6559 20.5 20.6628 20.5 20.6698 20.5C20.6767 20.5 20.6836 20.5 20.6905 20.5C20.6974 20.5 20.7043 20.5 20.7111 20.5C20.718 20.5 20.7249 20.5 20.7317 20.5C20.7386 20.5 20.7454 20.5 20.7523 20.5C20.7591 20.5 20.7659 20.5 20.7728 20.5C20.7796 20.5 20.7864 20.5 20.7932 20.5C20.8 20.5 20.8067 20.5 20.8135 20.5C20.8203 20.5 20.827 20.5 20.8338 20.5C20.8405 20.5 20.8473 20.5 20.854 20.5C20.8607 20.5 20.8675 20.5 20.8742 20.5C20.8809 20.5 20.8876 20.5 20.8943 20.5C20.901 20.5 20.9076 20.5 20.9143 20.5C20.921 20.5 20.9276 20.5 20.9343 20.5C20.9409 20.5 20.9476 20.5 20.9542 20.5C20.9608 20.5 20.9674 20.5 20.974 20.5C20.9806 20.5 20.9872 20.5 20.9938 20.5C21.0004 20.5 21.007 20.5 21.0136 20.5C21.0201 20.5 21.0267 20.5 21.0332 20.5C21.0398 20.5 21.0463 20.5 21.0528 20.5C21.0594 20.5 21.0659 20.5 21.0724 20.5C21.0789 20.5 21.0854 20.5 21.0919 20.5C21.0983 20.5 21.1048 20.5 21.1113 20.5C21.1177 20.5 21.1242 20.5 21.1306 20.5C21.1371 20.5 21.1435 20.5 21.1499 20.5C21.1564 20.5 21.1628 20.5 21.1692 20.5C21.1756 20.5 21.182 20.5 21.1884 20.5C21.1947 20.5 21.2011 20.5 21.2075 20.5C21.2139 20.5 21.2202 20.5 21.2265 20.5C21.2329 20.5 21.2392 20.5 21.2456 20.5C21.2519 20.5 21.2582 20.5 21.2645 20.5C21.2708 20.5 21.2771 20.5 21.2834 20.5C21.2897 20.5 21.2959 20.5 21.3022 20.5C21.3085 20.5 21.3147 20.5 21.321 20.5C21.3272 20.5 21.3335 20.5 21.3397 20.5C21.3459 20.5 21.3521 20.5 21.3583 20.5C21.3645 20.5 21.3707 20.5 21.3769 20.5C21.3831 20.5 21.3893 20.5 21.3954 20.5C21.4016 20.5 21.4078 20.5 21.4139 20.5C21.4201 20.5 21.4262 20.5 21.4323 20.5C21.4385 20.5 21.4446 20.5 21.4507 20.5C21.4568 20.5 21.4629 20.5 21.469 20.5C21.4751 20.5 21.4812 20.5 21.4872 20.5C21.4933 20.5 21.4994 20.5 21.5054 20.5C21.5115 20.5 21.5175 20.5 21.5235 20.5C21.5296 20.5 21.5356 20.5 21.5416 20.5C21.5476 20.5 21.5536 20.5 21.5596 20.5C21.5656 20.5 21.5716 20.5 21.5776 20.5C21.5836 20.5 21.5895 20.5 21.5955 20.5C21.6014 20.5 21.6074 20.5 21.6133 20.5C21.6193 20.5 21.6252 20.5 21.6311 20.5C21.637 20.5 21.6429 20.5 21.6488 20.5C21.6547 20.5 21.6606 20.5 21.6665 20.5C21.6724 20.5 21.6783 20.5 21.6841 20.5C21.69 20.5 21.6959 20.5 21.7017 20.5C21.7075 20.5 21.7134 20.5 21.7192 20.5C21.725 20.5 21.7308 20.5 21.7367 20.5C21.7425 20.5 21.7483 20.5 21.754 20.5C21.7598 20.5 21.7656 20.5 21.7714 20.5C21.7772 20.5 21.7829 20.5 21.7887 20.5C21.7944 20.5 21.8002 20.5 21.8059 20.5C21.8116 20.5 21.8174 20.5 21.8231 20.5C21.8288 20.5 21.8345 20.5 21.8402 20.5C21.8459 20.5 21.8516 20.5 21.8573 20.5C21.8629 20.5 21.8686 20.5 21.8743 20.5C21.8799 20.5 21.8856 20.5 21.8912 20.5C21.8969 20.5 21.9025 20.5 21.9081 20.5C21.9138 20.5 21.9194 20.5 21.925 20.5C21.9306 20.5 21.9362 20.5 21.9418 20.5C21.9474 20.5 21.9529 20.5 21.9585 20.5C21.9641 20.5 21.9696 20.5 21.9752 20.5C21.9808 20.5 21.9863 20.5 21.9918 20.5C21.9974 20.5 22.0029 20.5 22.0084 20.5C22.0139 20.5 22.0194 20.5 22.0249 20.5C22.0304 20.5 22.0359 20.5 22.0414 20.5C22.0469 20.5 22.0524 20.5 22.0578 20.5C22.0633 20.5 22.0688 20.5 22.0742 20.5C22.0797 20.5 22.0851 20.5 22.0905 20.5C22.096 20.5 22.1014 20.5 22.1068 20.5C22.1122 20.5 22.1176 20.5 22.123 20.5C22.1284 20.5 22.1338 20.5 22.1392 20.5C22.1445 20.5 22.1499 20.5 22.1553 20.5C22.1606 20.5 22.166 20.5 22.1713 20.5C22.1767 20.5 22.182 20.5 22.1873 20.5C22.1927 20.5 22.198 20.5 22.2033 20.5C22.2086 20.5 22.2139 20.5 22.2192 20.5C22.2245 20.5 22.2298 20.5 22.235 20.5C22.2403 20.5 22.2456 20.5 22.2508 20.5C22.2561 20.5 22.2613 20.5 22.2666 20.5C22.2718 20.5 22.2771 20.5 22.2823 20.5C22.2875 20.5 22.2927 20.5 22.2979 20.5C22.3031 20.5 22.3083 20.5 22.3135 20.5C22.3187 20.5 22.3239 20.5 22.3291 20.5C22.3342 20.5 22.3394 20.5 22.3446 20.5C22.3497 20.5 22.3549 20.5 22.36 20.5C22.3652 20.5 22.3703 20.5 22.3754 20.5C22.3805 20.5 22.3857 20.5 22.3908 20.5C22.3959 20.5 22.401 20.5 22.4061 20.5C22.4111 20.5 22.4162 20.5 22.4213 20.5C22.4264 20.5 22.4314 20.5 22.4365 20.5C22.4416 20.5 22.4466 20.5 22.4517 20.5C22.4567 20.5 22.4617 20.5 22.4668 20.5C22.4718 20.5 22.4768 20.5 22.4818 20.5C22.4868 20.5 22.4918 20.5 22.4968 20.5C22.5018 20.5 22.5068 20.5 22.5118 20.5C22.5167 20.5 22.5217 20.5 22.5267 20.5C22.5316 20.5 22.5366 20.5 22.5415 20.5C22.5465 20.5 22.5514 20.5 22.5563 20.5C22.5613 20.5 22.5662 20.5 22.5711 20.5C22.576 20.5 22.5809 20.5 22.5858 20.5C22.5907 20.5 22.5956 20.5 22.6005 20.5C22.6054 20.5 22.6102 20.5 22.6151 20.5C22.62 20.5 22.6248 20.5 22.6297 20.5C22.6345 20.5 22.6394 20.5 22.6442 20.5C22.649 20.5 22.6538 20.5 22.6587 20.5C22.6635 20.5 22.6683 20.5 22.6731 20.5C22.6779 20.5 22.6827 20.5 22.6875 20.5C22.6923 20.5 22.697 20.5 22.7018 20.5C22.7066 20.5 22.7113 20.5 22.7161 20.5C22.7209 20.5 22.7256 20.5 22.7303 20.5C22.7351 20.5 22.7398 20.5 22.7445 20.5C22.7493 20.5 22.754 20.5 22.7587 20.5C22.7634 20.5 22.7681 20.5 22.7728 20.5C22.7775 20.5 22.7822 20.5 22.7869 20.5C22.7915 20.5 22.7962 20.5 22.8009 20.5C22.8055 20.5 22.8102 20.5 22.8148 20.5C22.8195 20.5 22.8241 20.5 22.8288 20.5C22.8334 20.5 22.838 20.5 22.8426 20.5C22.8473 20.5 22.8519 20.5 22.8565 20.5C22.8611 20.5 22.8657 20.5 22.8703 20.5C22.8748 20.5 22.8794 20.5 22.884 20.5C22.8886 20.5 22.8931 20.5 22.8977 20.5C22.9023 20.5 22.9068 20.5 22.9114 20.5C22.9159 20.5 22.9204 20.5 22.925 20.5C22.9295 20.5 22.934 20.5 22.9385 20.5C22.943 20.5 22.9475 20.5 22.952 20.5C22.9565 20.5 22.961 20.5 22.9655 20.5C22.97 20.5 22.9745 20.5 22.979 20.5C22.9834 20.5 22.9879 20.5 22.9923 20.5C22.9968 20.5 23.0013 20.5 23.0057 20.5C23.0101 20.5 23.0146 20.5 23.019 20.5C23.0234 20.5 23.0278 20.5 23.0323 20.5C23.0367 20.5 23.0411 20.5 23.0455 20.5C23.0499 20.5 23.0543 20.5 23.0586 20.5C23.063 20.5 23.0674 20.5 23.0718 20.5C23.0761 20.5 23.0805 20.5 23.0849 20.5C23.0892 20.5 23.0936 20.5 23.0979 20.5C23.1023 20.5 23.1066 20.5 23.1109 20.5C23.1152 20.5 23.1196 20.5 23.1239 20.5C23.1282 20.5 23.1325 20.5 23.1368 20.5C23.1411 20.5 23.1454 20.5 23.1497 20.5C23.154 20.5 23.1582 20.5 23.1625 20.5C23.1668 20.5 23.1711 20.5 23.1753 20.5C23.1796 20.5 23.1838 20.5 23.1881 20.5C23.1923 20.5 23.1965 20.5 23.2008 20.5C23.205 20.5 23.2092 20.5 23.2134 20.5C23.2177 20.5 23.2219 20.5 23.2261 20.5C23.2303 20.5 23.2345 20.5 23.2387 20.5C23.2429 20.5 23.247 20.5 23.2512 20.5C23.2554 20.5 23.2596 20.5 23.2637 20.5C23.2679 20.5 23.272 20.5 23.2762 20.5C23.2803 20.5 23.2845 20.5 23.2886 20.5C23.2928 20.5 23.2969 20.5 23.301 20.5C23.3051 20.5 23.3092 20.5 23.3134 20.5C23.3175 20.5 23.3216 20.5 23.3257 20.5C23.3298 20.5 23.3339 20.5 23.3379 20.5C23.342 20.5 23.3461 20.5 23.3502 20.5C23.3542 20.5 23.3583 20.5 23.3624 20.5C23.3664 20.5 23.3705 20.5 23.3745 20.5C23.3785 20.5 23.3826 20.5 23.3866 20.5C23.3906 20.5 23.3947 20.5 23.3987 20.5C23.4027 20.5 23.4067 20.5 23.4107 20.5C23.4147 20.5 23.4187 20.5 23.4227 20.5C23.4267 20.5 23.4307 20.5 23.4347 20.5C23.4387 20.5 23.4426 20.5 23.4466 20.5C23.4506 20.5 23.4545 20.5 23.4585 20.5C23.4624 20.5 23.4664 20.5 23.4703 20.5C23.4743 20.5 23.4782 20.5 23.4821 20.5C23.486 20.5 23.49 20.5 23.4939 20.5C23.4978 20.5 23.5017 20.5 23.5056 20.5C23.5095 20.5 23.5134 20.5 23.5173 20.5C23.5212 20.5 23.5251 20.5 23.529 20.5C23.5328 20.5 23.5367 20.5 23.5406 20.5C23.5444 20.5 23.5483 20.5 23.5522 20.5C23.556 20.5 23.5599 20.5 23.5637 20.5C23.5675 20.5 23.5714 20.5 23.5752 20.5C23.579 20.5 23.5829 20.5 23.5867 20.5C23.5905 20.5 23.5943 20.5 23.5981 20.5C23.6019 20.5 23.6057 20.5 23.6095 20.5C23.6133 20.5 23.6171 20.5 23.6209 20.5C23.6246 20.5 23.6284 20.5 23.6322 20.5C23.636 20.5 23.6397 20.5 23.6435 20.5C23.6472 20.5 23.651 20.5 23.6547 20.5C23.6585 20.5 23.6622 20.5 23.666 20.5C23.6697 20.5 23.6734 20.5 23.6771 20.5C23.6809 20.5 23.6846 20.5 23.6883 20.5C23.692 20.5 23.6957 20.5 23.6994 20.5C23.7031 20.5 23.7068 20.5 23.7105 20.5C23.7142 20.5 23.7178 20.5 23.7215 20.5C23.7252 20.5 23.7289 20.5 23.7325 20.5C23.7362 20.5 23.7398 20.5 23.7435 20.5C23.7472 20.5 23.7508 20.5 23.7544 20.5C23.7581 20.5 23.7617 20.5 23.7653 20.5C23.769 20.5 23.7726 20.5 23.7762 20.5C23.7798 20.5 23.7834 20.5 23.7871 20.5C23.7907 20.5 23.7943 20.5 23.7979 20.5C23.8014 20.5 23.805 20.5 23.8086 20.5C23.8122 20.5 23.8158 20.5 23.8194 20.5C23.8229 20.5 23.8265 20.5 23.8301 20.5C23.8336 20.5 23.8372 20.5 23.8407 20.5C23.8443 20.5 23.8478 20.5 23.8514 20.5C23.8549 20.5 23.8584 20.5 23.862 20.5C23.8655 20.5 23.869 20.5 23.8725 20.5C23.8761 20.5 23.8796 20.5 23.8831 20.5C23.8866 20.5 23.8901 20.5 23.8936 20.5C23.8971 20.5 23.9006 20.5 23.9041 20.5C23.9075 20.5 23.911 20.5 23.9145 20.5C23.918 20.5 23.9214 20.5 23.9249 20.5C23.9284 20.5 23.9318 20.5 23.9353 20.5C23.9387 20.5 23.9422 20.5 23.9456 20.5C23.9491 20.5 23.9525 20.5 23.9559 20.5C23.9594 20.5 23.9628 20.5 23.9662 20.5C23.9697 20.5 23.9731 20.5 23.9765 20.5C23.9799 20.5 23.9833 20.5 23.9867 20.5C23.9901 20.5 23.9935 20.5 23.9969 20.5C24.0003 20.5 24.0037 20.5 24.007 20.5C24.0104 20.5 24.0138 20.5 24.0172 20.5C24.0205 20.5 24.0239 20.5 24.0273 20.5C24.0306 20.5 24.034 20.5 24.0373 20.5C24.0407 20.5 24.044 20.5 24.0474 20.5C24.0507 20.5 24.0541 20.5 24.0574 20.5C24.0607 20.5 24.064 20.5 24.0674 20.5C24.0707 20.5 24.074 20.5 24.0773 20.5C24.0806 20.5 24.0839 20.5 24.0872 20.5C24.0905 20.5 24.0938 20.5 24.0971 20.5C24.1004 20.5 24.1037 20.5 24.107 20.5C24.1102 20.5 24.1135 20.5 24.1168 20.5C24.1201 20.5 24.1233 20.5 24.1266 20.5C24.1299 20.5 24.1331 20.5 24.1364 20.5C24.1396 20.5 24.1429 20.5 24.1461 20.5C24.1494 20.5 24.1526 20.5 24.1558 20.5C24.1591 20.5 24.1623 20.5 24.1655 20.5C24.1687 20.5 24.1719 20.5 24.1752 20.5C24.1784 20.5 24.1816 20.5 24.1848 20.5C24.188 20.5 24.1912 20.5 24.1944 20.5C24.1976 20.5 24.2008 20.5 24.204 20.5C24.2071 20.5 24.2103 20.5 24.2135 20.5C24.2167 20.5 24.2199 20.5 24.223 20.5C24.2262 20.5 24.2294 20.5 24.2325 20.5C24.2357 20.5 24.2388 20.5 24.242 20.5C24.2451 20.5 24.2483 20.5 24.2514 20.5C24.2546 20.5 24.2577 20.5 24.2608 20.5C24.2639 20.5 24.2671 20.5 24.2702 20.5C24.2733 20.5 24.2764 20.5 24.2796 20.5C24.2827 20.5 24.2858 20.5 24.2889 20.5C24.292 20.5 24.2951 20.5 24.2982 20.5C24.3013 20.5 24.3044 20.5 24.3075 20.5C24.3105 20.5 24.3136 20.5 24.3167 20.5C24.3198 20.5 24.3229 20.5 24.3259 20.5C24.329 20.5 24.3321 20.5 24.3351 20.5C24.3382 20.5 24.3412 20.5 24.3443 20.5C24.3473 20.5 24.3504 20.5 24.3534 20.5C24.3565 20.5 24.3595 20.5 24.3626 20.5C24.3656 20.5 24.3686 20.5 24.3717 20.5C24.3747 20.5 24.3777 20.5 24.3807 20.5C24.3837 20.5 24.3868 20.5 24.3898 20.5C24.3928 20.5 24.3958 20.5 24.3988 20.5C24.4018 20.5 24.4048 20.5 24.4078 20.5C24.4108 20.5 24.4138 20.5 24.4168 20.5C24.4197 20.5 24.4227 20.5 24.4257 20.5C24.4287 20.5 24.4317 20.5 24.4346 20.5C24.4376 20.5 24.4406 20.5 24.4435 20.5C24.4465 20.5 24.4494 20.5 24.4524 20.5C24.4553 20.5 24.4583 20.5 24.4612 20.5C24.4642 20.5 24.4671 20.5 24.4701 20.5C24.473 20.5 24.4759 20.5 24.4789 20.5C24.4818 20.5 24.4847 20.5 24.4876 20.5C24.4906 20.5 24.4935 20.5 24.4964 20.5C24.4993 20.5 24.5022 20.5 24.5051 20.5C24.508 20.5 24.511 20.5 24.5138 20.5C24.5167 20.5 24.5196 20.5 24.5225 20.5C24.5254 20.5 24.5283 20.5 24.5312 20.5C24.5341 20.5 24.537 20.5 24.5398 20.5C24.5427 20.5 24.5456 20.5 24.5485 20.5C24.5513 20.5 24.5542 20.5 24.5571 20.5C24.5599 20.5 24.5628 20.5 24.5656 20.5C24.5685 20.5 24.5713 20.5 24.5742 20.5C24.577 20.5 24.5799 20.5 24.5827 20.5C24.5856 20.5 24.5884 20.5 24.5912 20.5C24.5941 20.5 24.5969 20.5 24.5997 20.5C24.6025 20.5 24.6054 20.5 24.6082 20.5C24.611 20.5 24.6138 20.5 24.6166 20.5C24.6194 20.5 24.6223 20.5 24.6251 20.5C24.6279 20.5 24.6307 20.5 24.6335 20.5C24.6363 20.5 24.6391 20.5 24.6418 20.5C24.6446 20.5 24.6474 20.5 24.6502 20.5C24.653 20.5 24.6558 20.5 24.6586 20.5C24.6613 20.5 24.6641 20.5 24.6669 20.5C24.6696 20.5 24.6724 20.5 24.6752 20.5C24.6779 20.5 24.6807 20.5 24.6835 20.5C24.6862 20.5 24.689 20.5 24.6917 20.5C24.6945 20.5 24.6972 20.5 24.7 20.5C24.7027 20.5 24.7054 20.5 24.7082 20.5C24.7109 20.5 24.7137 20.5 24.7164 20.5C24.7191 20.5 24.7218 20.5 24.7246 20.5C24.7273 20.5 24.73 20.5 24.7327 20.5C24.7355 20.5 24.7382 20.5 24.7409 20.5C24.7436 20.5 24.7463 20.5 24.749 20.5C24.7517 20.5 24.7544 20.5 24.7571 20.5C24.7598 20.5 24.7625 20.5 24.7652 20.5C24.7679 20.5 24.7706 20.5 24.7733 20.5C24.776 20.5 24.7786 20.5 24.7813 20.5C24.784 20.5 24.7867 20.5 24.7894 20.5C24.792 20.5 24.7947 20.5 24.7974 20.5C24.8001 20.5 24.8027 20.5 24.8054 20.5C24.808 20.5 24.8107 20.5 24.8134 20.5C24.816 20.5 24.8187 20.5 24.8213 20.5C24.824 20.5 24.8266 20.5 24.8293 20.5C24.8319 20.5 24.8346 20.5 24.8372 20.5C24.8398 20.5 24.8425 20.5 24.8451 20.5C24.8477 20.5 24.8504 20.5 24.853 20.5C24.8556 20.5 24.8583 20.5 24.8609 20.5C24.8635 20.5 24.8661 20.5 24.8688 20.5C24.8714 20.5 24.874 20.5 24.8766 20.5C24.8792 20.5 24.8818 20.5 24.8844 20.5C24.887 20.5 24.8896 20.5 24.8922 20.5C24.8948 20.5 24.8974 20.5 24.9 20.5C24.9026 20.5 24.9052 20.5 24.9078 20.5C24.9104 20.5 24.913 20.5 24.9156 20.5C24.9182 20.5 24.9208 20.5 24.9233 20.5C24.9259 20.5 24.9285 20.5 24.9311 20.5C24.9336 20.5 24.9362 20.5 24.9388 20.5C24.9414 20.5 24.9439 20.5 24.9465 20.5C24.9491 20.5 24.9516 20.5 24.9542 20.5C24.9567 20.5 24.9593 20.5 24.9618 20.5C24.9644 20.5 24.967 20.5 24.9695 20.5C24.9721 20.5 24.9746 20.5 24.9772 20.5C24.9797 20.5 24.9822 20.5 24.9848 20.5C24.9873 20.5 24.9899 20.5 24.9924 20.5C24.9949 20.5 24.9975 20.5 25 20.5V18.5C24.9975 18.5 24.9949 18.5 24.9924 18.5C24.9899 18.5 24.9873 18.5 24.9848 18.5C24.9822 18.5 24.9797 18.5 24.9772 18.5C24.9746 18.5 24.9721 18.5 24.9695 18.5C24.967 18.5 24.9644 18.5 24.9618 18.5C24.9593 18.5 24.9567 18.5 24.9542 18.5C24.9516 18.5 24.9491 18.5 24.9465 18.5C24.9439 18.5 24.9414 18.5 24.9388 18.5C24.9362 18.5 24.9336 18.5 24.9311 18.5C24.9285 18.5 24.9259 18.5 24.9233 18.5C24.9208 18.5 24.9182 18.5 24.9156 18.5C24.913 18.5 24.9104 18.5 24.9078 18.5C24.9052 18.5 24.9026 18.5 24.9 18.5C24.8974 18.5 24.8948 18.5 24.8922 18.5C24.8896 18.5 24.887 18.5 24.8844 18.5C24.8818 18.5 24.8792 18.5 24.8766 18.5C24.874 18.5 24.8714 18.5 24.8688 18.5C24.8661 18.5 24.8635 18.5 24.8609 18.5C24.8583 18.5 24.8556 18.5 24.853 18.5C24.8504 18.5 24.8477 18.5 24.8451 18.5C24.8425 18.5 24.8398 18.5 24.8372 18.5C24.8346 18.5 24.8319 18.5 24.8293 18.5C24.8266 18.5 24.824 18.5 24.8213 18.5C24.8187 18.5 24.816 18.5 24.8134 18.5C24.8107 18.5 24.808 18.5 24.8054 18.5C24.8027 18.5 24.8001 18.5 24.7974 18.5C24.7947 18.5 24.792 18.5 24.7894 18.5C24.7867 18.5 24.784 18.5 24.7813 18.5C24.7786 18.5 24.776 18.5 24.7733 18.5C24.7706 18.5 24.7679 18.5 24.7652 18.5C24.7625 18.5 24.7598 18.5 24.7571 18.5C24.7544 18.5 24.7517 18.5 24.749 18.5C24.7463 18.5 24.7436 18.5 24.7409 18.5C24.7382 18.5 24.7355 18.5 24.7327 18.5C24.73 18.5 24.7273 18.5 24.7246 18.5C24.7218 18.5 24.7191 18.5 24.7164 18.5C24.7137 18.5 24.7109 18.5 24.7082 18.5C24.7054 18.5 24.7027 18.5 24.7 18.5C24.6972 18.5 24.6945 18.5 24.6917 18.5C24.689 18.5 24.6862 18.5 24.6835 18.5C24.6807 18.5 24.6779 18.5 24.6752 18.5C24.6724 18.5 24.6696 18.5 24.6669 18.5C24.6641 18.5 24.6613 18.5 24.6586 18.5C24.6558 18.5 24.653 18.5 24.6502 18.5C24.6474 18.5 24.6446 18.5 24.6418 18.5C24.6391 18.5 24.6363 18.5 24.6335 18.5C24.6307 18.5 24.6279 18.5 24.6251 18.5C24.6223 18.5 24.6194 18.5 24.6166 18.5C24.6138 18.5 24.611 18.5 24.6082 18.5C24.6054 18.5 24.6025 18.5 24.5997 18.5C24.5969 18.5 24.5941 18.5 24.5912 18.5C24.5884 18.5 24.5856 18.5 24.5827 18.5C24.5799 18.5 24.577 18.5 24.5742 18.5C24.5713 18.5 24.5685 18.5 24.5656 18.5C24.5628 18.5 24.5599 18.5 24.5571 18.5C24.5542 18.5 24.5513 18.5 24.5485 18.5C24.5456 18.5 24.5427 18.5 24.5398 18.5C24.537 18.5 24.5341 18.5 24.5312 18.5C24.5283 18.5 24.5254 18.5 24.5225 18.5C24.5196 18.5 24.5167 18.5 24.5138 18.5C24.511 18.5 24.508 18.5 24.5051 18.5C24.5022 18.5 24.4993 18.5 24.4964 18.5C24.4935 18.5 24.4906 18.5 24.4876 18.5C24.4847 18.5 24.4818 18.5 24.4789 18.5C24.4759 18.5 24.473 18.5 24.4701 18.5C24.4671 18.5 24.4642 18.5 24.4612 18.5C24.4583 18.5 24.4553 18.5 24.4524 18.5C24.4494 18.5 24.4465 18.5 24.4435 18.5C24.4406 18.5 24.4376 18.5 24.4346 18.5C24.4317 18.5 24.4287 18.5 24.4257 18.5C24.4227 18.5 24.4197 18.5 24.4168 18.5C24.4138 18.5 24.4108 18.5 24.4078 18.5C24.4048 18.5 24.4018 18.5 24.3988 18.5C24.3958 18.5 24.3928 18.5 24.3898 18.5C24.3868 18.5 24.3837 18.5 24.3807 18.5C24.3777 18.5 24.3747 18.5 24.3717 18.5C24.3686 18.5 24.3656 18.5 24.3626 18.5C24.3595 18.5 24.3565 18.5 24.3534 18.5C24.3504 18.5 24.3473 18.5 24.3443 18.5C24.3412 18.5 24.3382 18.5 24.3351 18.5C24.3321 18.5 24.329 18.5 24.3259 18.5C24.3229 18.5 24.3198 18.5 24.3167 18.5C24.3136 18.5 24.3105 18.5 24.3075 18.5C24.3044 18.5 24.3013 18.5 24.2982 18.5C24.2951 18.5 24.292 18.5 24.2889 18.5C24.2858 18.5 24.2827 18.5 24.2796 18.5C24.2764 18.5 24.2733 18.5 24.2702 18.5C24.2671 18.5 24.2639 18.5 24.2608 18.5C24.2577 18.5 24.2546 18.5 24.2514 18.5C24.2483 18.5 24.2451 18.5 24.242 18.5C24.2388 18.5 24.2357 18.5 24.2325 18.5C24.2294 18.5 24.2262 18.5 24.223 18.5C24.2199 18.5 24.2167 18.5 24.2135 18.5C24.2103 18.5 24.2071 18.5 24.204 18.5C24.2008 18.5 24.1976 18.5 24.1944 18.5C24.1912 18.5 24.188 18.5 24.1848 18.5C24.1816 18.5 24.1784 18.5 24.1752 18.5C24.1719 18.5 24.1687 18.5 24.1655 18.5C24.1623 18.5 24.1591 18.5 24.1558 18.5C24.1526 18.5 24.1494 18.5 24.1461 18.5C24.1429 18.5 24.1396 18.5 24.1364 18.5C24.1331 18.5 24.1299 18.5 24.1266 18.5C24.1233 18.5 24.1201 18.5 24.1168 18.5C24.1135 18.5 24.1102 18.5 24.107 18.5C24.1037 18.5 24.1004 18.5 24.0971 18.5C24.0938 18.5 24.0905 18.5 24.0872 18.5C24.0839 18.5 24.0806 18.5 24.0773 18.5C24.074 18.5 24.0707 18.5 24.0674 18.5C24.064 18.5 24.0607 18.5 24.0574 18.5C24.0541 18.5 24.0507 18.5 24.0474 18.5C24.044 18.5 24.0407 18.5 24.0373 18.5C24.034 18.5 24.0306 18.5 24.0273 18.5C24.0239 18.5 24.0205 18.5 24.0172 18.5C24.0138 18.5 24.0104 18.5 24.007 18.5C24.0037 18.5 24.0003 18.5 23.9969 18.5C23.9935 18.5 23.9901 18.5 23.9867 18.5C23.9833 18.5 23.9799 18.5 23.9765 18.5C23.9731 18.5 23.9697 18.5 23.9662 18.5C23.9628 18.5 23.9594 18.5 23.9559 18.5C23.9525 18.5 23.9491 18.5 23.9456 18.5C23.9422 18.5 23.9387 18.5 23.9353 18.5C23.9318 18.5 23.9284 18.5 23.9249 18.5C23.9214 18.5 23.918 18.5 23.9145 18.5C23.911 18.5 23.9075 18.5 23.9041 18.5C23.9006 18.5 23.8971 18.5 23.8936 18.5C23.8901 18.5 23.8866 18.5 23.8831 18.5C23.8796 18.5 23.8761 18.5 23.8725 18.5C23.869 18.5 23.8655 18.5 23.862 18.5C23.8584 18.5 23.8549 18.5 23.8514 18.5C23.8478 18.5 23.8443 18.5 23.8407 18.5C23.8372 18.5 23.8336 18.5 23.8301 18.5C23.8265 18.5 23.8229 18.5 23.8194 18.5C23.8158 18.5 23.8122 18.5 23.8086 18.5C23.805 18.5 23.8014 18.5 23.7979 18.5C23.7943 18.5 23.7907 18.5 23.7871 18.5C23.7834 18.5 23.7798 18.5 23.7762 18.5C23.7726 18.5 23.769 18.5 23.7653 18.5C23.7617 18.5 23.7581 18.5 23.7544 18.5C23.7508 18.5 23.7472 18.5 23.7435 18.5C23.7398 18.5 23.7362 18.5 23.7325 18.5C23.7289 18.5 23.7252 18.5 23.7215 18.5C23.7178 18.5 23.7142 18.5 23.7105 18.5C23.7068 18.5 23.7031 18.5 23.6994 18.5C23.6957 18.5 23.692 18.5 23.6883 18.5C23.6846 18.5 23.6809 18.5 23.6771 18.5C23.6734 18.5 23.6697 18.5 23.666 18.5C23.6622 18.5 23.6585 18.5 23.6547 18.5C23.651 18.5 23.6472 18.5 23.6435 18.5C23.6397 18.5 23.636 18.5 23.6322 18.5C23.6284 18.5 23.6246 18.5 23.6209 18.5C23.6171 18.5 23.6133 18.5 23.6095 18.5C23.6057 18.5 23.6019 18.5 23.5981 18.5C23.5943 18.5 23.5905 18.5 23.5867 18.5C23.5829 18.5 23.579 18.5 23.5752 18.5C23.5714 18.5 23.5675 18.5 23.5637 18.5C23.5599 18.5 23.556 18.5 23.5522 18.5C23.5483 18.5 23.5444 18.5 23.5406 18.5C23.5367 18.5 23.5328 18.5 23.529 18.5C23.5251 18.5 23.5212 18.5 23.5173 18.5C23.5134 18.5 23.5095 18.5 23.5056 18.5C23.5017 18.5 23.4978 18.5 23.4939 18.5C23.49 18.5 23.486 18.5 23.4821 18.5C23.4782 18.5 23.4743 18.5 23.4703 18.5C23.4664 18.5 23.4624 18.5 23.4585 18.5C23.4545 18.5 23.4506 18.5 23.4466 18.5C23.4426 18.5 23.4387 18.5 23.4347 18.5C23.4307 18.5 23.4267 18.5 23.4227 18.5C23.4187 18.5 23.4147 18.5 23.4107 18.5C23.4067 18.5 23.4027 18.5 23.3987 18.5C23.3947 18.5 23.3906 18.5 23.3866 18.5C23.3826 18.5 23.3785 18.5 23.3745 18.5C23.3705 18.5 23.3664 18.5 23.3624 18.5C23.3583 18.5 23.3542 18.5 23.3502 18.5C23.3461 18.5 23.342 18.5 23.3379 18.5C23.3339 18.5 23.3298 18.5 23.3257 18.5C23.3216 18.5 23.3175 18.5 23.3134 18.5C23.3092 18.5 23.3051 18.5 23.301 18.5C23.2969 18.5 23.2928 18.5 23.2886 18.5C23.2845 18.5 23.2803 18.5 23.2762 18.5C23.272 18.5 23.2679 18.5 23.2637 18.5C23.2596 18.5 23.2554 18.5 23.2512 18.5C23.247 18.5 23.2429 18.5 23.2387 18.5C23.2345 18.5 23.2303 18.5 23.2261 18.5C23.2219 18.5 23.2177 18.5 23.2134 18.5C23.2092 18.5 23.205 18.5 23.2008 18.5C23.1965 18.5 23.1923 18.5 23.1881 18.5C23.1838 18.5 23.1796 18.5 23.1753 18.5C23.1711 18.5 23.1668 18.5 23.1625 18.5C23.1582 18.5 23.154 18.5 23.1497 18.5C23.1454 18.5 23.1411 18.5 23.1368 18.5C23.1325 18.5 23.1282 18.5 23.1239 18.5C23.1196 18.5 23.1152 18.5 23.1109 18.5C23.1066 18.5 23.1023 18.5 23.0979 18.5C23.0936 18.5 23.0892 18.5 23.0849 18.5C23.0805 18.5 23.0761 18.5 23.0718 18.5C23.0674 18.5 23.063 18.5 23.0586 18.5C23.0543 18.5 23.0499 18.5 23.0455 18.5C23.0411 18.5 23.0367 18.5 23.0323 18.5C23.0278 18.5 23.0234 18.5 23.019 18.5C23.0146 18.5 23.0101 18.5 23.0057 18.5C23.0013 18.5 22.9968 18.5 22.9923 18.5C22.9879 18.5 22.9834 18.5 22.979 18.5C22.9745 18.5 22.97 18.5 22.9655 18.5C22.961 18.5 22.9565 18.5 22.952 18.5C22.9475 18.5 22.943 18.5 22.9385 18.5C22.934 18.5 22.9295 18.5 22.925 18.5C22.9204 18.5 22.9159 18.5 22.9114 18.5C22.9068 18.5 22.9023 18.5 22.8977 18.5C22.8931 18.5 22.8886 18.5 22.884 18.5C22.8794 18.5 22.8748 18.5 22.8703 18.5C22.8657 18.5 22.8611 18.5 22.8565 18.5C22.8519 18.5 22.8473 18.5 22.8426 18.5C22.838 18.5 22.8334 18.5 22.8288 18.5C22.8241 18.5 22.8195 18.5 22.8148 18.5C22.8102 18.5 22.8055 18.5 22.8009 18.5C22.7962 18.5 22.7915 18.5 22.7869 18.5C22.7822 18.5 22.7775 18.5 22.7728 18.5C22.7681 18.5 22.7634 18.5 22.7587 18.5C22.754 18.5 22.7493 18.5 22.7445 18.5C22.7398 18.5 22.7351 18.5 22.7303 18.5C22.7256 18.5 22.7209 18.5 22.7161 18.5C22.7113 18.5 22.7066 18.5 22.7018 18.5C22.697 18.5 22.6923 18.5 22.6875 18.5C22.6827 18.5 22.6779 18.5 22.6731 18.5C22.6683 18.5 22.6635 18.5 22.6587 18.5C22.6538 18.5 22.649 18.5 22.6442 18.5C22.6394 18.5 22.6345 18.5 22.6297 18.5C22.6248 18.5 22.62 18.5 22.6151 18.5C22.6102 18.5 22.6054 18.5 22.6005 18.5C22.5956 18.5 22.5907 18.5 22.5858 18.5C22.5809 18.5 22.576 18.5 22.5711 18.5C22.5662 18.5 22.5613 18.5 22.5563 18.5C22.5514 18.5 22.5465 18.5 22.5415 18.5C22.5366 18.5 22.5316 18.5 22.5267 18.5C22.5217 18.5 22.5167 18.5 22.5118 18.5C22.5068 18.5 22.5018 18.5 22.4968 18.5C22.4918 18.5 22.4868 18.5 22.4818 18.5C22.4768 18.5 22.4718 18.5 22.4668 18.5C22.4617 18.5 22.4567 18.5 22.4517 18.5C22.4466 18.5 22.4416 18.5 22.4365 18.5C22.4314 18.5 22.4264 18.5 22.4213 18.5C22.4162 18.5 22.4111 18.5 22.4061 18.5C22.401 18.5 22.3959 18.5 22.3908 18.5C22.3857 18.5 22.3805 18.5 22.3754 18.5C22.3703 18.5 22.3652 18.5 22.36 18.5C22.3549 18.5 22.3497 18.5 22.3446 18.5C22.3394 18.5 22.3342 18.5 22.3291 18.5C22.3239 18.5 22.3187 18.5 22.3135 18.5C22.3083 18.5 22.3031 18.5 22.2979 18.5C22.2927 18.5 22.2875 18.5 22.2823 18.5C22.2771 18.5 22.2718 18.5 22.2666 18.5C22.2613 18.5 22.2561 18.5 22.2508 18.5C22.2456 18.5 22.2403 18.5 22.235 18.5C22.2298 18.5 22.2245 18.5 22.2192 18.5C22.2139 18.5 22.2086 18.5 22.2033 18.5C22.198 18.5 22.1927 18.5 22.1873 18.5C22.182 18.5 22.1767 18.5 22.1713 18.5C22.166 18.5 22.1606 18.5 22.1553 18.5C22.1499 18.5 22.1445 18.5 22.1392 18.5C22.1338 18.5 22.1284 18.5 22.123 18.5C22.1176 18.5 22.1122 18.5 22.1068 18.5C22.1014 18.5 22.096 18.5 22.0905 18.5C22.0851 18.5 22.0797 18.5 22.0742 18.5C22.0688 18.5 22.0633 18.5 22.0578 18.5C22.0524 18.5 22.0469 18.5 22.0414 18.5C22.0359 18.5 22.0304 18.5 22.0249 18.5C22.0194 18.5 22.0139 18.5 22.0084 18.5C22.0029 18.5 21.9974 18.5 21.9918 18.5C21.9863 18.5 21.9808 18.5 21.9752 18.5C21.9696 18.5 21.9641 18.5 21.9585 18.5C21.9529 18.5 21.9474 18.5 21.9418 18.5C21.9362 18.5 21.9306 18.5 21.925 18.5C21.9194 18.5 21.9138 18.5 21.9081 18.5C21.9025 18.5 21.8969 18.5 21.8912 18.5C21.8856 18.5 21.8799 18.5 21.8743 18.5C21.8686 18.5 21.8629 18.5 21.8573 18.5C21.8516 18.5 21.8459 18.5 21.8402 18.5C21.8345 18.5 21.8288 18.5 21.8231 18.5C21.8174 18.5 21.8116 18.5 21.8059 18.5C21.8002 18.5 21.7944 18.5 21.7887 18.5C21.7829 18.5 21.7772 18.5 21.7714 18.5C21.7656 18.5 21.7598 18.5 21.754 18.5C21.7483 18.5 21.7425 18.5 21.7367 18.5C21.7308 18.5 21.725 18.5 21.7192 18.5C21.7134 18.5 21.7075 18.5 21.7017 18.5C21.6959 18.5 21.69 18.5 21.6841 18.5C21.6783 18.5 21.6724 18.5 21.6665 18.5C21.6606 18.5 21.6547 18.5 21.6488 18.5C21.6429 18.5 21.637 18.5 21.6311 18.5C21.6252 18.5 21.6193 18.5 21.6133 18.5C21.6074 18.5 21.6014 18.5 21.5955 18.5C21.5895 18.5 21.5836 18.5 21.5776 18.5C21.5716 18.5 21.5656 18.5 21.5596 18.5C21.5536 18.5 21.5476 18.5 21.5416 18.5C21.5356 18.5 21.5296 18.5 21.5235 18.5C21.5175 18.5 21.5115 18.5 21.5054 18.5C21.4994 18.5 21.4933 18.5 21.4872 18.5C21.4812 18.5 21.4751 18.5 21.469 18.5C21.4629 18.5 21.4568 18.5 21.4507 18.5C21.4446 18.5 21.4385 18.5 21.4323 18.5C21.4262 18.5 21.4201 18.5 21.4139 18.5C21.4078 18.5 21.4016 18.5 21.3954 18.5C21.3893 18.5 21.3831 18.5 21.3769 18.5C21.3707 18.5 21.3645 18.5 21.3583 18.5C21.3521 18.5 21.3459 18.5 21.3397 18.5C21.3335 18.5 21.3272 18.5 21.321 18.5C21.3147 18.5 21.3085 18.5 21.3022 18.5C21.2959 18.5 21.2897 18.5 21.2834 18.5C21.2771 18.5 21.2708 18.5 21.2645 18.5C21.2582 18.5 21.2519 18.5 21.2456 18.5C21.2392 18.5 21.2329 18.5 21.2265 18.5C21.2202 18.5 21.2139 18.5 21.2075 18.5C21.2011 18.5 21.1947 18.5 21.1884 18.5C21.182 18.5 21.1756 18.5 21.1692 18.5C21.1628 18.5 21.1564 18.5 21.1499 18.5C21.1435 18.5 21.1371 18.5 21.1306 18.5C21.1242 18.5 21.1177 18.5 21.1113 18.5C21.1048 18.5 21.0983 18.5 21.0919 18.5C21.0854 18.5 21.0789 18.5 21.0724 18.5C21.0659 18.5 21.0594 18.5 21.0528 18.5C21.0463 18.5 21.0398 18.5 21.0332 18.5C21.0267 18.5 21.0201 18.5 21.0136 18.5C21.007 18.5 21.0004 18.5 20.9938 18.5C20.9872 18.5 20.9806 18.5 20.974 18.5C20.9674 18.5 20.9608 18.5 20.9542 18.5C20.9476 18.5 20.9409 18.5 20.9343 18.5C20.9276 18.5 20.921 18.5 20.9143 18.5C20.9076 18.5 20.901 18.5 20.8943 18.5C20.8876 18.5 20.8809 18.5 20.8742 18.5C20.8675 18.5 20.8607 18.5 20.854 18.5C20.8473 18.5 20.8405 18.5 20.8338 18.5C20.827 18.5 20.8203 18.5 20.8135 18.5C20.8067 18.5 20.8 18.5 20.7932 18.5C20.7864 18.5 20.7796 18.5 20.7728 18.5C20.7659 18.5 20.7591 18.5 20.7523 18.5C20.7454 18.5 20.7386 18.5 20.7317 18.5C20.7249 18.5 20.718 18.5 20.7111 18.5C20.7043 18.5 20.6974 18.5 20.6905 18.5C20.6836 18.5 20.6767 18.5 20.6698 18.5C20.6628 18.5 20.6559 18.5 20.649 18.5C20.642 18.5 20.6351 18.5 20.6281 18.5C20.6212 18.5 20.6142 18.5 20.6072 18.5C20.6002 18.5 20.5932 18.5 20.5862 18.5C20.5792 18.5 20.5722 18.5 20.5652 18.5C20.5582 18.5 20.5511 18.5 20.5441 18.5C20.537 18.5 20.53 18.5 20.5229 18.5C20.5158 18.5 20.5087 18.5 20.5017 18.5C20.4946 18.5 20.4875 18.5 20.4804 18.5C20.4732 18.5 20.4661 18.5 20.459 18.5C20.4519 18.5 20.4447 18.5 20.4376 18.5C20.4304 18.5 20.4232 18.5 20.4161 18.5C20.4089 18.5 20.4017 18.5 20.3945 18.5C20.3873 18.5 20.3801 18.5 20.3729 18.5C20.3656 18.5 20.3584 18.5 20.3512 18.5C20.3439 18.5 20.3367 18.5 20.3294 18.5C20.3221 18.5 20.3149 18.5 20.3076 18.5C20.3003 18.5 20.293 18.5 20.2857 18.5C20.2784 18.5 20.2711 18.5 20.2637 18.5C20.2564 18.5 20.249 18.5 20.2417 18.5C20.2343 18.5 20.227 18.5 20.2196 18.5C20.2122 18.5 20.2048 18.5 20.1974 18.5C20.19 18.5 20.1826 18.5 20.1752 18.5C20.1678 18.5 20.1604 18.5 20.1529 18.5C20.1455 18.5 20.138 18.5 20.1306 18.5C20.1231 18.5 20.1156 18.5 20.1081 18.5C20.1006 18.5 20.0931 18.5 20.0856 18.5C20.0781 18.5 20.0706 18.5 20.0631 18.5C20.0555 18.5 20.048 18.5 20.0404 18.5C20.0329 18.5 20.0253 18.5 20.0177 18.5C20.0102 18.5 20.0026 18.5 19.995 18.5C19.9874 18.5 19.9798 18.5 19.9721 18.5C19.9645 18.5 19.9569 18.5 19.9492 18.5C19.9416 18.5 19.9339 18.5 19.9263 18.5C19.9186 18.5 19.9109 18.5 19.9032 18.5C19.8955 18.5 19.8878 18.5 19.8801 18.5C19.8724 18.5 19.8647 18.5 19.8569 18.5C19.8492 18.5 19.8415 18.5 19.8337 18.5C19.8259 18.5 19.8182 18.5 19.8104 18.5C19.8026 18.5 19.7948 18.5 19.787 18.5C19.7792 18.5 19.7714 18.5 19.7635 18.5C19.7557 18.5 19.7479 18.5 19.74 18.5C19.7322 18.5 19.7243 18.5 19.7164 18.5C19.7085 18.5 19.7007 18.5 19.6928 18.5C19.6849 18.5 19.6769 18.5 19.669 18.5C19.6611 18.5 19.6532 18.5 19.6452 18.5C19.6373 18.5 19.6293 18.5 19.6213 18.5C19.6134 18.5 19.6054 18.5 19.5974 18.5C19.5894 18.5 19.5814 18.5 19.5734 18.5C19.5654 18.5 19.5573 18.5 19.5493 18.5C19.5413 18.5 19.5332 18.5 19.5251 18.5C19.5171 18.5 19.509 18.5 19.5009 18.5C19.4928 18.5 19.4847 18.5 19.4766 18.5C19.4685 18.5 19.4604 18.5 19.4522 18.5C19.4441 18.5 19.436 18.5 19.4278 18.5C19.4196 18.5 19.4115 18.5 19.4033 18.5C19.3951 18.5 19.3869 18.5 19.3787 18.5C19.3705 18.5 19.3623 18.5 19.354 18.5C19.3458 18.5 19.3376 18.5 19.3293 18.5C19.321 18.5 19.3128 18.5 19.3045 18.5C19.2962 18.5 19.2879 18.5 19.2796 18.5C19.2713 18.5 19.263 18.5 19.2547 18.5C19.2463 18.5 19.238 18.5 19.2297 18.5C19.2213 18.5 19.2129 18.5 19.2046 18.5C19.1962 18.5 19.1878 18.5 19.1794 18.5C19.171 18.5 19.1626 18.5 19.1542 18.5C19.1457 18.5 19.1373 18.5 19.1288 18.5C19.1204 18.5 19.1119 18.5 19.1035 18.5C19.095 18.5 19.0865 18.5 19.078 18.5C19.0695 18.5 19.061 18.5 19.0525 18.5C19.0439 18.5 19.0354 18.5 19.0269 18.5C19.0183 18.5 19.0097 18.5 19.0012 18.5C18.9926 18.5 18.984 18.5 18.9754 18.5C18.9668 18.5 18.9582 18.5 18.9496 18.5C18.941 18.5 18.9323 18.5 18.9237 18.5C18.915 18.5 18.9064 18.5 18.8977 18.5C18.889 18.5 18.8803 18.5 18.8716 18.5C18.8629 18.5 18.8542 18.5 18.8455 18.5C18.8368 18.5 18.8281 18.5 18.8193 18.5C18.8106 18.5 18.8018 18.5 18.793 18.5C18.7843 18.5 18.7755 18.5 18.7667 18.5C18.7579 18.5 18.7491 18.5 18.7402 18.5C18.7314 18.5 18.7226 18.5 18.7137 18.5C18.7049 18.5 18.696 18.5 18.6872 18.5C18.6783 18.5 18.6694 18.5 18.6605 18.5C18.6516 18.5 18.6427 18.5 18.6338 18.5C18.6248 18.5 18.6159 18.5 18.607 18.5C18.598 18.5 18.589 18.5 18.5801 18.5C18.5711 18.5 18.5621 18.5 18.5531 18.5C18.5441 18.5 18.5351 18.5 18.5261 18.5C18.517 18.5 18.508 18.5 18.4989 18.5C18.4899 18.5 18.4808 18.5 18.4718 18.5C18.4627 18.5 18.4536 18.5 18.4445 18.5C18.4354 18.5 18.4263 18.5 18.4171 18.5C18.408 18.5 18.3989 18.5 18.3897 18.5C18.3806 18.5 18.3714 18.5 18.3622 18.5C18.353 18.5 18.3438 18.5 18.3346 18.5C18.3254 18.5 18.3162 18.5 18.307 18.5C18.2977 18.5 18.2885 18.5 18.2792 18.5C18.27 18.5 18.2607 18.5 18.2514 18.5C18.2421 18.5 18.2328 18.5 18.2235 18.5C18.2142 18.5 18.2049 18.5 18.1956 18.5C18.1862 18.5 18.1769 18.5 18.1675 18.5C18.1581 18.5 18.1488 18.5 18.1394 18.5C18.13 18.5 18.1206 18.5 18.1112 18.5C18.1018 18.5 18.0923 18.5 18.0829 18.5C18.0734 18.5 18.064 18.5 18.0545 18.5C18.045 18.5 18.0356 18.5 18.0261 18.5C18.0166 18.5 18.0071 18.5 17.9975 18.5C17.988 18.5 17.9785 18.5 17.9689 18.5C17.9594 18.5 17.9498 18.5 17.9403 18.5C17.9307 18.5 17.9211 18.5 17.9115 18.5C17.9019 18.5 17.8923 18.5 17.8826 18.5C17.873 18.5 17.8634 18.5 17.8537 18.5C17.8441 18.5 17.8344 18.5 17.8247 18.5C17.815 18.5 17.8053 18.5 17.7956 18.5C17.7859 18.5 17.7762 18.5 17.7665 18.5C17.7567 18.5 17.747 18.5 17.7372 18.5C17.7275 18.5 17.7177 18.5 17.7079 18.5C17.6981 18.5 17.6883 18.5 17.6785 18.5C17.6687 18.5 17.6588 18.5 17.649 18.5C17.6392 18.5 17.6293 18.5 17.6194 18.5C17.6096 18.5 17.5997 18.5 17.5898 18.5C17.5799 18.5 17.57 18.5 17.56 18.5C17.5501 18.5 17.5402 18.5 17.5302 18.5C17.5203 18.5 17.5103 18.5 17.5003 18.5C17.4903 18.5 17.4804 18.5 17.4703 18.5C17.4603 18.5 17.4503 18.5 17.4403 18.5C17.4303 18.5 17.4202 18.5 17.4101 18.5C17.4001 18.5 17.39 18.5 17.3799 18.5C17.3698 18.5 17.3597 18.5 17.3496 18.5C17.3395 18.5 17.3294 18.5 17.3192 18.5C17.3091 18.5 17.2989 18.5 17.2887 18.5C17.2786 18.5 17.2684 18.5 17.2582 18.5C17.248 18.5 17.2378 18.5 17.2275 18.5C17.2173 18.5 17.2071 18.5 17.1968 18.5C17.1866 18.5 17.1763 18.5 17.166 18.5C17.1557 18.5 17.1454 18.5 17.1351 18.5C17.1248 18.5 17.1145 18.5 17.1041 18.5C17.0938 18.5 17.0834 18.5 17.0731 18.5C17.0627 18.5 17.0523 18.5 17.0419 18.5C17.0315 18.5 17.0211 18.5 17.0107 18.5C17.0003 18.5 16.9898 18.5 16.9794 18.5C16.9689 18.5 16.9585 18.5 16.948 18.5C16.9375 18.5 16.927 18.5 16.9165 18.5C16.906 18.5 16.8955 18.5 16.8849 18.5C16.8744 18.5 16.8639 18.5 16.8533 18.5C16.8427 18.5 16.8321 18.5 16.8215 18.5C16.811 18.5 16.8003 18.5 16.7897 18.5C16.7791 18.5 16.7685 18.5 16.7578 18.5C16.7472 18.5 16.7365 18.5 16.7258 18.5C16.7151 18.5 16.7045 18.5 16.6937 18.5C16.683 18.5 16.6723 18.5 16.6616 18.5C16.6508 18.5 16.6401 18.5 16.6293 18.5C16.6186 18.5 16.6078 18.5 16.597 18.5C16.5862 18.5 16.5754 18.5 16.5646 18.5C16.5537 18.5 16.5429 18.5 16.5321 18.5C16.5212 18.5 16.5103 18.5 16.4995 18.5C16.4886 18.5 16.4777 18.5 16.4668 18.5C16.4559 18.5 16.4449 18.5 16.434 18.5C16.4231 18.5 16.4121 18.5 16.4011 18.5C16.3902 18.5 16.3792 18.5 16.3682 18.5C16.3572 18.5 16.3462 18.5 16.3352 18.5C16.3241 18.5 16.3131 18.5 16.302 18.5C16.291 18.5 16.2799 18.5 16.2688 18.5C16.2578 18.5 16.2467 18.5 16.2355 18.5C16.2244 18.5 16.2133 18.5 16.2022 18.5C16.191 18.5 16.1799 18.5 16.1687 18.5C16.1575 18.5 16.1463 18.5 16.1351 18.5C16.1239 18.5 16.1127 18.5 16.1015 18.5C16.0902 18.5 16.079 18.5 16.0677 18.5C16.0565 18.5 16.0452 18.5 16.0339 18.5C16.0226 18.5 16.0113 18.5 16 18.5V20.5ZM16 2.5C17.4115 2.5 18.4201 2.50054 19.2149 2.55477C20.0007 2.60839 20.5043 2.71112 20.9134 2.8806L21.6788 1.03284C20.9853 0.745598 20.2387 0.619974 19.351 0.55941C18.4723 0.499458 17.3841 0.5 16 0.5V2.5ZM20.9134 2.8806C22.1386 3.38807 23.1119 4.36144 23.6194 5.58658L25.4672 4.82122C24.7567 3.10602 23.394 1.7433 21.6788 1.03284L20.9134 2.8806ZM10 0.5C8.61586 0.5 7.52767 0.499458 6.64899 0.55941C5.76134 0.619974 5.01469 0.745598 4.32122 1.03284L5.08658 2.8806C5.49574 2.71112 5.99931 2.60839 6.78514 2.55477C7.57994 2.50054 8.58849 2.5 10 2.5V0.5ZM4.32122 1.03284C2.60602 1.7433 1.2433 3.10602 0.532843 4.82122L2.3806 5.58658C2.88807 4.36144 3.86144 3.38807 5.08658 2.8806L4.32122 1.03284ZM2 10.5C2 9.2457 2.0003 8.30755 2.039 7.55109L0.0416068 7.44891C-0.000297785 8.26807 0 9.26506 0 10.5H2ZM2.039 7.55109C2.0871 6.61081 2.19198 6.04195 2.3806 5.58658L0.532843 4.82122C0.21468 5.58933 0.0939512 6.42567 0.0416068 7.44891L2.039 7.55109ZM26 12.5C26 11.2766 26.0004 8.27009 25.9584 7.44891L23.961 7.55109C23.9996 8.30553 24 11.2341 24 12.5H26ZM25.9584 7.44891C25.906 6.42567 25.7853 5.58933 25.4672 4.82122L23.6194 5.58658C23.808 6.04195 23.9129 6.61081 23.961 7.55109L25.9584 7.44891ZM1.0403 8.5H24.9597V6.5H1.0403V8.5ZM19 12.5H21V10.5H19V12.5ZM25.7071 18.7929L22.7071 15.7929L21.2929 17.2071L24.2929 20.2071L25.7071 18.7929ZM22.7071 23.2071L25.7071 20.2071L24.2929 18.7929L21.2929 21.7929L22.7071 23.2071Z" fill="#FFEEEE"/>
</svg>
