<svg width="29" height="24" viewBox="0 0 29 24" fill="none" xmlns="http://www.w3.org/2000/svg">
<path d="M27.6667 8H20.6667C18.4575 8 16.6667 9.79086 16.6667 12C16.6667 14.2091 18.4575 16 20.6667 16H27.6667M12.2667 23H18.0667C21.427 23 23.1072 23 24.3906 22.346C25.5196 21.7708 26.4375 20.8529 27.0127 19.7239C27.6667 18.4405 27.6667 16.7603 27.6667 13.4V10.6C27.6667 7.23968 27.6667 5.55953 27.0127 4.27606C26.4375 3.14708 25.5196 2.2292 24.3906 1.65396C23.1072 1 21.427 1 18.0667 1H12.2667C8.90637 1 6.22621 1 4.94274 1.65396C3.81377 2.2292 2.89589 3.14708 2.32065 4.27606C1.66669 5.55953 1.66669 7.23969 1.66669 10.6V13.4C1.66669 16.7603 1.66669 18.4405 2.32065 19.7239C2.89589 20.8529 3.81377 21.7708 4.94274 22.346C6.22621 23 8.90637 23 12.2667 23Z" stroke="white" stroke-width="2"/>
</svg>
