<svg width="26" height="27" viewBox="0 0 26 27" fill="none" xmlns="http://www.w3.org/2000/svg">
<path d="M7 12L15 12M7 8L19 8M7 1L19 1C22.3137 1 25 3.79822 25 7.25001V13.4167C25 16.8685 22.3137 19.6667 19 19.6667L13.4684 19.6667C13.1716 19.6667 12.8901 19.804 12.7002 20.0415L8.88411 24.8116C8.58473 25.1858 8 24.9653 8 24.4781V20.7084C8 20.1331 7.55228 19.6667 7 19.6667C3.68629 19.6667 1 16.8685 1 13.4167L1 7.25001C1 3.79822 3.68629 1 7 1Z" stroke="white" stroke-width="2" stroke-linecap="round"/>
</svg>
