<svg width="26" height="23" viewBox="0 0 26 23" fill="none" xmlns="http://www.w3.org/2000/svg">
<path d="M0.999999 9.5L0.999999 10.3C0.999999 14.2204 1 16.1806 1.76295 17.6779C2.43407 18.9951 3.50493 20.0659 4.82207 20.737C6.31945 21.5 8.27963 21.5 12.2 21.5L17 21.5M5 10.3889L5 8.61111C5 6.12199 5 4.87743 5.49542 3.92671C5.93121 3.09043 6.62658 2.41052 7.48186 1.98441C8.45418 1.5 9.72705 1.5 12.2727 1.5L17.7273 1.5C20.2729 1.5 21.5458 1.5 22.5181 1.98441C23.3734 2.41052 24.0688 3.09043 24.5046 3.92671C25 4.87743 25 6.12199 25 8.61111L25 10.3889C25 12.878 25 14.1226 24.5046 15.0733C24.0688 15.9096 23.3734 16.5895 22.5181 17.0156C21.5458 17.5 20.273 17.5 17.7273 17.5L12.2727 17.5C9.72704 17.5 8.45419 17.5 7.48186 17.0156C6.62658 16.5895 5.93121 15.9096 5.49542 15.0733C5 14.1226 5 12.878 5 10.3889Z" stroke="white" stroke-width="2" stroke-linecap="round"/>
</svg>
