<svg width="27" height="25" viewBox="0 0 27 25" fill="none" xmlns="http://www.w3.org/2000/svg">
<circle class="svg-stroke" opacity="0.7" cx="13" cy="12.5" r="12" stroke="white"/>
<path class="svg-fill" opacity="0.7" d="M12.7173 18.8333V17.6481C11.0204 17.5539 9.87558 16.5842 9.76783 15.1027H10.7645C10.8183 16.0455 11.5591 16.6785 12.7173 16.7727L12.7173 13.0286L12.1921 12.8939C10.6837 12.5303 9.88905 11.6818 9.88905 10.362C9.88905 8.867 11.0069 7.82997 12.7173 7.69529V6.52357H13.4311V7.69529C14.9934 7.80303 16.017 8.74579 16.1517 10.2677L15.182 10.2677C15.0877 9.25758 14.4682 8.66498 13.4311 8.55724V12.2609L14.0237 12.4091C15.5456 12.7862 16.3133 13.6347 16.3133 14.9276C16.3133 16.4764 15.1954 17.5135 13.4311 17.6481V18.8333H12.7173ZM12.3672 12.0051L12.7173 12.0859V8.57071C11.5725 8.69192 10.8453 9.36532 10.8453 10.3485C10.8453 11.197 11.3436 11.7492 12.3672 12.0051ZM13.8217 13.298L13.4311 13.2037L13.4311 16.7727C14.6163 16.6515 15.3571 15.9781 15.3571 14.9815C15.3571 14.1061 14.8587 13.5404 13.8217 13.298Z" fill="white"/>
</svg>
