<svg width="12" height="12" viewBox="0 0 12 12" fill="none" xmlns="http://www.w3.org/2000/svg">
<path fill-rule="evenodd" clip-rule="evenodd" d="M10.9497 10.9498C11.4053 10.4941 11.4053 9.75546 10.9497 9.29985L7.65 6.00014L10.95 2.70018C11.4056 2.24457 11.4056 1.50588 10.95 1.05027C10.4943 0.594654 9.75565 0.594654 9.30004 1.05027L6.00008 4.35023L2.70012 1.05027C2.24451 0.594654 1.50582 0.594654 1.0502 1.05027C0.594593 1.50588 0.594593 2.24457 1.0502 2.70018L4.35017 6.00014L1.05046 9.29985C0.594852 9.75546 0.594852 10.4941 1.05046 10.9498C1.50607 11.4054 2.24477 11.4054 2.70038 10.9498L6.00008 7.65006L9.29978 10.9498C9.75539 11.4054 10.4941 11.4054 10.9497 10.9498Z" fill="white"/>
</svg>
