<svg width="26" height="19" viewBox="0 0 26 19" fill="none" xmlns="http://www.w3.org/2000/svg">
<path class="svg-stroke" opacity="0.7" d="M1.0403 6.5C1 7.28781 1 8.25538 1 9.5C1 12.2956 1 13.6935 1.45672 14.7961C2.06569 16.2663 3.23373 17.4343 4.7039 18.0433C5.80653 18.5 7.20435 18.5 10 18.5L16 18.5C18.7956 18.5 20.1935 18.5 21.2961 18.0433C22.7663 17.4343 23.9343 16.2663 24.5433 14.7961C25 13.6935 25 12.2956 25 9.5C25 8.25538 25 7.28781 24.9597 6.5M1.0403 6.5C1.09052 5.51824 1.20333 4.81564 1.45672 4.2039C2.06569 2.73373 3.23373 1.56569 4.7039 0.956723C5.80653 0.5 7.20435 0.5 10 0.5L16 0.5C18.7957 0.5 20.1935 0.5 21.2961 0.956723C22.7663 1.56569 23.9343 2.73373 24.5433 4.2039C24.7967 4.81564 24.9095 5.51824 24.9597 6.5M1.0403 6.5L24.9597 6.5M19 10.5H21" stroke="white" stroke-linecap="round"/>
</svg>
