<svg width="26" height="21" viewBox="0 0 26 21" fill="none" xmlns="http://www.w3.org/2000/svg">
<path d="M2.17014 12.7432L1.39095 13.37L2.17014 12.7432ZM2.17014 8.25684L1.39095 7.63004L2.17014 8.25684ZM23.8299 12.7432L24.609 13.37L23.8299 12.7432ZM23.8299 8.25684L24.609 7.63004L23.8299 8.25684ZM25 10.5H26H25ZM23.0507 12.1164C22.0085 13.4119 20.5234 15.0282 18.7612 16.3132C16.9921 17.6032 15.0259 18.5 13 18.5V20.5C15.6129 20.5 17.9895 19.3512 19.9396 17.9292C21.8965 16.5022 23.5069 14.7401 24.609 13.37L23.0507 12.1164ZM13 18.5C10.9741 18.5 9.00786 17.6032 7.2388 16.3132C5.47659 15.0282 3.99146 13.4119 2.94932 12.1164L1.39095 13.37C2.49312 14.7401 4.10348 16.5022 6.06041 17.9292C8.01048 19.3512 10.3871 20.5 13 20.5V18.5ZM2.94932 8.88363C3.99146 7.58813 5.47659 5.97181 7.2388 4.6868C9.00786 3.39679 10.9741 2.5 13 2.5V0.5C10.3871 0.5 8.01048 1.64882 6.06041 3.07081C4.10348 4.49782 2.49312 6.25991 1.39095 7.63004L2.94932 8.88363ZM13 2.5C15.0259 2.5 16.9921 3.39679 18.7612 4.6868C20.5234 5.97181 22.0085 7.58813 23.0507 8.88363L24.609 7.63004C23.5069 6.25991 21.8965 4.49782 19.9396 3.07081C17.9895 1.64882 15.6129 0.5 13 0.5V2.5ZM2.94932 12.1164C2.11182 11.0753 2 10.8718 2 10.5H0C0 11.7053 0.668268 12.4716 1.39095 13.37L2.94932 12.1164ZM1.39095 7.63004C0.668268 8.52843 0 9.29468 0 10.5H2C2 10.1282 2.11182 9.92474 2.94932 8.88363L1.39095 7.63004ZM24.609 13.37C25.3317 12.4716 26 11.7053 26 10.5H24C24 10.8718 23.8882 11.0753 23.0507 12.1164L24.609 13.37ZM23.0507 8.88363C23.8882 9.92474 24 10.1282 24 10.5H26C26 9.29468 25.3317 8.52843 24.609 7.63004L23.0507 8.88363ZM15.3976 10.5C15.3976 11.8054 14.3305 12.875 13 12.875V14.875C15.4224 14.875 17.3976 12.9225 17.3976 10.5H15.3976ZM13 12.875C11.6695 12.875 10.6024 11.8054 10.6024 10.5H8.60239C8.60239 12.9225 10.5776 14.875 13 14.875V12.875ZM10.6024 10.5C10.6024 9.19461 11.6695 8.125 13 8.125V6.125C10.5776 6.125 8.60239 8.07747 8.60239 10.5H10.6024ZM13 8.125C14.3305 8.125 15.3976 9.19461 15.3976 10.5H17.3976C17.3976 8.07747 15.4224 6.125 13 6.125V8.125Z" fill="white"/>
</svg>
