<svg width="177" height="44" viewBox="0 0 177 44" fill="none" xmlns="http://www.w3.org/2000/svg">
<path d="M38.5213 21.2368C38.5097 21.2279 38.5006 21.2162 38.4947 21.2028C38.466 21.14 38.4516 21.0648 38.4516 20.9774C38.4466 16.0907 38.4435 11.1627 38.4422 6.19352C38.4422 6.13128 38.4172 6.0716 38.3725 6.02759C38.3278 5.98358 38.2673 5.95886 38.2041 5.95886L32.4613 5.96625C32.4271 5.96625 32.3932 5.97289 32.3616 5.9858C32.3299 5.99871 32.3012 6.01762 32.277 6.04147C32.2528 6.06532 32.2336 6.09364 32.2205 6.1248C32.2074 6.15596 32.2007 6.18935 32.2007 6.22308V42.8529C32.2007 42.8823 32.2066 42.9114 32.2181 42.9385C32.2296 42.9656 32.2464 42.9902 32.2677 43.011C32.2889 43.0318 32.3141 43.0482 32.3419 43.0595C32.3696 43.0707 32.3994 43.0765 32.4294 43.0765L38.2566 43.082C38.2924 43.082 38.3268 43.068 38.3521 43.0431C38.3774 43.0181 38.3916 42.9843 38.3916 42.949C38.3941 38.4146 38.4035 33.8624 38.4197 29.2923C38.4291 26.4504 40.1615 23.8654 43.0339 23.3536C47.5505 22.548 49.7948 25.2364 49.791 29.477C49.7873 33.9387 49.7829 38.3795 49.7779 42.7993C49.7777 42.8364 49.7849 42.8731 49.7992 42.9074C49.8135 42.9417 49.8346 42.9728 49.8613 42.9991C49.8879 43.0254 49.9197 43.0462 49.9546 43.0605C49.9895 43.0747 50.027 43.082 50.0648 43.082H55.7326C55.8626 43.082 55.9276 43.018 55.9276 42.8899C55.9326 37.9243 55.9457 32.9151 55.967 27.8621C55.972 26.5748 55.8083 25.3184 55.4758 24.0927C54.0771 18.9245 49.5154 17.0306 44.4944 17.8695C41.9896 18.2871 40.3265 19.4142 38.641 21.2268C38.6311 21.2376 38.6186 21.2458 38.6046 21.2505C38.5907 21.2553 38.5758 21.2566 38.5612 21.2542C38.5467 21.2518 38.5329 21.2458 38.5213 21.2368Z" fill="white"/>
<path d="M27.2265 32.1951C27.0578 28.0241 25.0367 25.1533 21.1631 23.5827C20.2456 23.2107 19.3026 22.9175 18.3339 22.7032C16.3827 22.272 14.4291 21.8532 12.4729 21.4467C9.67554 20.8665 7.30566 19.4881 7.50065 16.3414C7.75189 12.2985 12.2367 11.2693 15.5478 11.77C18.3139 12.1901 19.8519 13.7625 20.1619 16.4873C20.167 16.5325 20.1889 16.5742 20.2235 16.6045C20.258 16.6348 20.3029 16.6517 20.3494 16.6518L26.4466 16.6592C26.4672 16.6592 26.4876 16.6552 26.5066 16.6475C26.5256 16.6397 26.5428 16.6284 26.5573 16.6141C26.5718 16.5999 26.5832 16.583 26.5909 16.5644C26.5986 16.5458 26.6025 16.5259 26.6022 16.5058C26.5535 10.8887 22.6293 7.10076 17.2052 6.20645C15.2653 5.88741 13.236 5.88864 11.1173 6.21015C7.00192 6.83654 2.87338 9.33654 1.5572 13.3554C0.271012 17.28 1.16909 22.2874 4.75766 24.8447C6.0926 25.7969 7.62252 26.5028 9.34744 26.9622C10.2311 27.1975 12.2798 27.6632 15.4934 28.3592L15.6547 28.3942C17.3499 28.7621 18.632 29.0404 19.6463 30.0776C20.5038 30.9522 20.8731 32.0916 20.7544 33.4959C20.6288 34.9815 19.8975 36.0439 18.6245 36.8329C15.4484 38.8026 7.20629 38.6493 7.04317 33.3666C7.04025 33.2798 7.00322 33.1975 6.93989 33.1372C6.87656 33.0769 6.7919 33.0432 6.70382 33.0432L0.859733 33.0561C0.619745 33.0574 0.505375 33.1756 0.516625 33.4109C0.955353 42.2432 10.1911 44.7579 17.522 43.3795C23.2986 42.2912 27.4722 38.2742 27.2265 32.1951Z" fill="white"/>
<path d="M116.204 28.4072L125.496 18.5513C125.526 18.5192 125.563 18.4937 125.603 18.4762C125.644 18.4587 125.688 18.4497 125.732 18.4497L132.988 18.446C133.218 18.446 133.254 18.5273 133.095 18.6899L124.069 27.9656C123.91 28.1294 123.891 28.3074 124.011 28.4996L132.984 42.827C133.089 42.9946 133.042 43.0783 132.842 43.0783H126.293C126.133 43.0783 126.011 43.0112 125.927 42.8769L119.712 33.0007C119.693 32.9698 119.667 32.9433 119.636 32.923C119.605 32.9028 119.571 32.8892 119.534 32.8833C119.498 32.8773 119.461 32.8791 119.425 32.8885C119.389 32.898 119.356 32.9148 119.328 32.9379C119.271 32.9835 119.187 33.0641 119.074 33.1799C118.205 34.0779 117.327 34.9692 116.442 35.8536C116.288 36.0064 116.117 36.2263 115.927 36.5133C115.893 36.565 115.876 36.6211 115.876 36.6814L115.878 42.9767C115.878 43.0042 115.867 43.0305 115.846 43.0499C115.826 43.0693 115.799 43.0802 115.771 43.0802L109.976 43.0783C109.909 43.0783 109.846 43.0524 109.799 43.0064C109.752 42.9603 109.726 42.8978 109.726 42.8326V6.29145C109.726 6.20373 109.761 6.1196 109.824 6.05758C109.887 5.99555 109.971 5.9607 110.06 5.9607L115.642 5.9644C115.704 5.9644 115.763 5.98873 115.807 6.03205C115.851 6.07536 115.876 6.13411 115.876 6.19537L115.88 28.2815C115.88 28.5957 115.988 28.6375 116.204 28.4072Z" fill="white"/>
<path fill-rule="evenodd" clip-rule="evenodd" d="M73.3043 43.1485C75.1254 42.5536 76.596 41.4369 77.7159 39.7986C77.7249 39.7858 77.7376 39.776 77.7524 39.7705C77.7672 39.7649 77.7833 39.7639 77.7986 39.7675C77.814 39.7711 77.8279 39.7791 77.8386 39.7906C77.8492 39.8021 77.8561 39.8164 77.8584 39.8318L78.2371 42.7642C78.2634 42.9724 78.3834 43.0765 78.5971 43.0765L83.4362 43.082C83.4976 43.082 83.5564 43.0581 83.6 43.0156C83.6435 42.973 83.6682 42.9152 83.6687 42.8548C83.6937 38.175 83.6919 33.4823 83.6631 28.7767C83.6531 27.083 83.5669 25.8567 83.4044 25.0979C82.525 20.9885 79.4127 18.4718 75.2898 17.8787C73.6186 17.6397 71.8675 17.644 70.0363 17.8916C65.4578 18.5143 61.6292 21.5539 61.5692 26.3396C61.569 26.3618 61.5732 26.3839 61.5818 26.4045C61.5904 26.4251 61.603 26.4438 61.6191 26.4596C61.6351 26.4755 61.6542 26.488 61.6753 26.4966C61.6963 26.5051 61.7189 26.5096 61.7417 26.5096L66.4777 26.5077C66.5777 26.5078 66.6739 26.4699 66.7464 26.4018C66.819 26.3338 66.8624 26.2407 66.8677 26.1418C66.9877 23.7878 69.2226 22.5997 71.4443 22.4648C72.6755 22.3909 73.5549 22.4155 74.0824 22.5387C76.7135 23.1497 77.8853 24.8244 77.5978 27.5628C77.5928 27.6219 77.5597 27.6539 77.4984 27.6589C74.9523 27.8596 72.4056 28.058 69.8582 28.2538C65.8871 28.5606 61.0911 30.6134 60.9711 35.2513L60.9703 35.2851C60.9515 36.0484 60.9234 37.189 61.1174 38.0192C61.6923 40.4829 63.1629 42.1674 65.529 43.0728C67.8689 43.9689 70.97 43.9098 73.3043 43.1485ZM67.2004 36.0717C67.3541 39.6581 72.2176 39.5898 74.5444 38.5458C77.2517 37.33 77.8423 34.7228 77.7149 32.0029C77.7141 31.984 77.7096 31.9654 77.7016 31.9482C77.6936 31.9309 77.6822 31.9155 77.6681 31.9026C77.654 31.8897 77.6374 31.8797 77.6194 31.8732C77.6014 31.8666 77.5822 31.8636 77.563 31.8643C75.4256 31.9469 73.3244 32.1249 71.2596 32.3983C69.1653 32.6736 67.0954 33.6234 67.2004 36.0717Z" fill="white"/>
<path d="M135.911 27.4334C135.283 24.9408 135.812 22.1285 137.805 20.3251C139.355 18.9233 141.273 18.0918 143.561 17.8307C145.294 17.6323 146.847 17.6631 148.218 17.923C152.02 18.6474 154.911 21.4615 155.043 25.3769C155.049 25.5851 154.946 25.6891 154.733 25.6891L149.388 25.691C149.357 25.6911 149.328 25.6812 149.304 25.6627C149.28 25.6443 149.262 25.6185 149.255 25.5894C149.224 25.4663 149.195 25.3415 149.166 25.2165C149.047 24.7073 148.928 24.1951 148.668 23.7841C147.588 22.0842 145.094 21.9179 143.383 22.5369C142.426 22.8818 141.829 23.5051 141.59 24.4068C141.037 26.5095 142.801 27.5258 144.568 27.9138C147.652 28.5901 149.682 29.081 150.655 29.3865C153.196 30.181 155.12 31.7239 155.461 34.4216C155.82 37.277 155.01 39.5516 153.031 41.2454C150.37 43.5236 146.791 43.895 143.392 43.653C142.048 43.5569 140.71 43.1849 139.376 42.5369C136.574 41.1745 135.072 38.9468 134.872 35.8536C134.871 35.8249 134.875 35.7961 134.885 35.769C134.895 35.742 134.91 35.7172 134.93 35.6962C134.95 35.6753 134.974 35.6586 135.001 35.6472C135.028 35.6358 135.057 35.63 135.086 35.6301L140.585 35.6448C140.637 35.645 140.686 35.6639 140.724 35.6977C140.761 35.7315 140.785 35.7779 140.79 35.8278C141.133 39.2572 145.301 39.612 147.86 38.6881C149.682 38.0284 150.537 35.5524 148.786 34.2793C148.447 34.033 147.986 33.8359 147.402 33.6881C145.319 33.1596 143.231 32.649 141.138 32.1563C140.506 32.0072 139.728 31.682 138.804 31.1807C137.289 30.3603 136.335 29.1093 135.911 27.4334Z" fill="white"/>
<path d="M104.405 18.1318C101.06 17.4907 97.7699 18.6862 96.1087 21.6666C96.0979 21.6857 96.0811 21.7011 96.0608 21.7104C96.0406 21.7198 96.0179 21.7226 95.9962 21.7184C95.9744 21.7143 95.9547 21.7035 95.9399 21.6875C95.925 21.6715 95.9159 21.6513 95.9138 21.6296L95.5706 18.6991C95.5638 18.6411 95.5353 18.5876 95.4907 18.5488C95.4461 18.5099 95.3885 18.4885 95.3288 18.4885L90.0547 18.4959C89.9726 18.4959 89.8939 18.528 89.8359 18.5851C89.7779 18.6423 89.7453 18.7199 89.7453 18.8007V42.8252C89.7453 42.8918 89.7722 42.9558 89.82 43.0029C89.8678 43.05 89.9327 43.0765 90.0003 43.0765L95.7206 43.082C95.8669 43.082 95.94 43.0094 95.94 42.864C95.9362 38.9394 95.9381 35.085 95.9456 31.3008C95.9481 30.1823 96.0338 29.312 96.2025 28.6899C96.8975 26.1326 98.6042 24.6094 101.323 24.1204C102.293 23.945 103.459 23.9678 104.565 23.9894C104.776 23.9936 104.984 23.9976 105.189 24.0003C105.227 24.0008 105.265 23.9938 105.3 23.9797C105.335 23.9657 105.368 23.9448 105.395 23.9184C105.422 23.8919 105.444 23.8604 105.459 23.8256C105.473 23.7909 105.481 23.7535 105.481 23.7157C105.484 23.1701 105.477 22.6184 105.47 22.0644C105.457 21.0031 105.443 19.9334 105.496 18.882C105.528 18.2457 105.139 18.2098 104.721 18.1712C104.615 18.1614 104.508 18.1515 104.405 18.1318Z" fill="white"/>
<path d="M167.652 7.42634L169.136 7.42634C169.562 7.42634 169.895 7.31385 170.134 7.08887C170.369 6.86389 170.487 6.55224 170.487 6.15391C170.487 5.76666 170.363 5.45685 170.117 5.22449C169.87 4.99582 169.538 4.88149 169.12 4.88149L167.652 4.88149V7.42634ZM167.652 11.559H165.96V3.57587H169.299C170.222 3.57587 170.942 3.80269 171.462 4.25634C171.97 4.7063 172.224 5.32776 172.224 6.12072C172.224 6.64076 172.095 7.10178 171.837 7.50379C171.576 7.91687 171.215 8.21192 170.756 8.38896L172.459 11.559H170.543L169.036 8.63791H167.652V11.559Z" fill="white"/>
<path fill-rule="evenodd" clip-rule="evenodd" d="M168.89 13.6851C172.201 13.6851 174.885 11.0347 174.885 7.7653C174.885 4.49587 172.201 1.84547 168.89 1.84547C165.579 1.84547 162.895 4.49587 162.895 7.7653C162.895 11.0347 165.579 13.6851 168.89 13.6851ZM168.89 15.2638C173.084 15.2638 176.484 11.9066 176.484 7.7653C176.484 3.62402 173.084 0.266846 168.89 0.266846C164.696 0.266846 161.296 3.62402 161.296 7.7653C161.296 11.9066 164.696 15.2638 168.89 15.2638Z" fill="white"/>
</svg>
