<svg width="26" height="23" viewBox="0 0 26 23" fill="none" xmlns="http://www.w3.org/2000/svg">
<path d="M25 13.5V12.7C25 8.77963 25 6.81945 24.237 5.32207C23.5659 4.00493 22.4951 2.93407 21.1779 2.26295C19.6806 1.5 17.7204 1.5 13.8 1.5L9 1.5M21 12.6111V14.3889C21 16.878 21 18.1226 20.5046 19.0733C20.0688 19.9096 19.3734 20.5895 18.5181 21.0156C17.5458 21.5 16.2729 21.5 13.7273 21.5H8.27273C5.72706 21.5 4.45418 21.5 3.48186 21.0156C2.62658 20.5895 1.93122 19.9096 1.49543 19.0733C1 18.1226 1 16.878 1 14.3889L1 12.6111C1 10.122 1 8.87743 1.49543 7.92671C1.93122 7.09043 2.62658 6.41052 3.48186 5.98441C4.45419 5.5 5.72704 5.5 8.27273 5.5L13.7273 5.5C16.273 5.5 17.5458 5.5 18.5181 5.98442C19.3734 6.41052 20.0688 7.09043 20.5046 7.92671C21 8.87743 21 10.122 21 12.6111Z" stroke="white" stroke-width="2" stroke-linecap="round"/>
</svg>
