<svg width="12" height="12" viewBox="0 0 12 12" fill="none" xmlns="http://www.w3.org/2000/svg">
<path fill-rule="evenodd" clip-rule="evenodd" d="M7.16666 1.16675C7.16666 0.614463 6.71894 0.166748 6.16666 0.166748H5.83332C5.28104 0.166748 4.83332 0.614464 4.83332 1.16675V4.83341H1.16666C0.614372 4.83341 0.166656 5.28113 0.166656 5.83341V6.16675C0.166656 6.71903 0.614372 7.16675 1.16666 7.16675H4.83332V10.8334C4.83332 11.3857 5.28104 11.8334 5.83332 11.8334H6.16666C6.71894 11.8334 7.16666 11.3857 7.16666 10.8334V7.16675H10.8333C11.3856 7.16675 11.8333 6.71903 11.8333 6.16675V5.83341C11.8333 5.28113 11.3856 4.83341 10.8333 4.83341H7.16666V1.16675Z" fill="#D6D6D6"/>
</svg>
