<svg width="27" height="23" viewBox="0 0 27 23" fill="none" xmlns="http://www.w3.org/2000/svg">
<path d="M10.9286 2C11.4809 2 11.9286 1.55228 11.9286 1C11.9286 0.447715 11.4809 0 10.9286 0V2ZM16.9286 0C16.3763 0 15.9286 0.447715 15.9286 1C15.9286 1.55228 16.3763 2 16.9286 2V0ZM16.9286 21C16.3763 21 15.9286 21.4477 15.9286 22C15.9286 22.5523 16.3763 23 16.9286 23L16.9286 21ZM10.0714 23C10.6237 23 11.0714 22.5523 11.0714 22C11.0714 21.4477 10.6237 21 10.0714 21L10.0714 23ZM4.21429 15C4.21429 14.4477 3.76657 14 3.21429 14C2.662 14 2.21429 14.4477 2.21429 15H4.21429ZM24.7857 15C24.7857 14.4477 24.338 14 23.7857 14C23.2334 14 22.7857 14.4477 22.7857 15L24.7857 15ZM1.5 8C0.947715 8 0.5 8.44772 0.5 9C0.5 9.55229 0.947715 10 1.5 10L1.5 8ZM25.5 10C26.0523 10 26.5 9.55229 26.5 9C26.5 8.44772 26.0523 8 25.5 8V10ZM9.13803 17.673L8.68404 18.564H8.68404L9.13803 17.673ZM7.82698 16.362L8.71799 15.908V15.908L7.82698 16.362ZM19.173 16.362L20.064 16.816L19.173 16.362ZM17.862 17.673L18.316 18.564L17.862 17.673ZM17.862 5.32698L17.408 6.21799H17.408L17.862 5.32698ZM19.173 6.63803L20.064 6.18404V6.18404L19.173 6.63803ZM9.13803 5.32698L8.68404 4.43597L9.13803 5.32698ZM7.82698 6.63803L6.93597 6.18404L7.82698 6.63803ZM19.4877 12.8436L18.5 13V13L19.4877 12.8436ZM18.6564 12.0123L18.8129 11.0246L18.8129 11.0246L18.6564 12.0123ZM7.51231 12.8436L8.5 13H8.5L7.51231 12.8436ZM8.34357 12.0123L8.18713 11.0246L8.18713 11.0246L8.34357 12.0123ZM22.7857 6.25V8H24.7857V6.25H22.7857ZM4.21429 8L4.21429 6.25H2.21429V8H4.21429ZM8.35714 2H10.9286V0L8.35714 0V2ZM16.9286 2H18.6429V0L16.9286 0V2ZM18.6429 21H16.9286L16.9286 23H18.6429V21ZM10.0714 21H8.35714V23H10.0714L10.0714 21ZM4.21429 16.75V15H2.21429V16.75H4.21429ZM22.7857 15L22.7857 16.75L24.7857 16.75L24.7857 15L22.7857 15ZM8.35714 21C6.08844 21 4.21429 19.1167 4.21429 16.75H2.21429C2.21429 20.1822 4.9452 23 8.35714 23V21ZM18.6429 23C22.0548 23 24.7857 20.1822 24.7857 16.75L22.7857 16.75C22.7857 19.1167 20.9116 21 18.6429 21V23ZM24.7857 6.25C24.7857 2.81776 22.0548 0 18.6429 0V2C20.9116 2 22.7857 3.88325 22.7857 6.25H24.7857ZM4.21429 6.25C4.21429 3.88325 6.08844 2 8.35714 2V0C4.9452 0 2.21429 2.81776 2.21429 6.25H4.21429ZM1.5 10L25.5 10V8L1.5 8L1.5 10ZM12.3 6L14.7 6V4H12.3V6ZM14.7 17H12.3V19H14.7V17ZM12.3 17C11.4434 17 10.8611 16.9992 10.411 16.9624C9.97262 16.9266 9.74842 16.8617 9.59202 16.782L8.68404 18.564C9.16937 18.8113 9.68608 18.9099 10.2482 18.9558C10.7986 19.0008 11.4764 19 12.3 19V17ZM6.5 13.2C6.5 14.0236 6.49922 14.7014 6.54419 15.2518C6.59012 15.8139 6.68868 16.3306 6.93597 16.816L8.71799 15.908C8.6383 15.7516 8.57337 15.5274 8.53755 15.089C8.50078 14.6389 8.5 14.0566 8.5 13.2H6.5ZM9.59202 16.782C9.21569 16.5903 8.90973 16.2843 8.71799 15.908L6.93597 16.816C7.31947 17.5686 7.93139 18.1805 8.68404 18.564L9.59202 16.782ZM18.5 13.2C18.5 14.0566 18.4992 14.6389 18.4624 15.089C18.4266 15.5274 18.3617 15.7516 18.282 15.908L20.064 16.816C20.3113 16.3306 20.4099 15.8139 20.4558 15.2518C20.5008 14.7014 20.5 14.0236 20.5 13.2H18.5ZM14.7 19C15.5236 19 16.2014 19.0008 16.7518 18.9558C17.3139 18.9099 17.8306 18.8113 18.316 18.564L17.408 16.782C17.2516 16.8617 17.0274 16.9266 16.589 16.9624C16.1389 16.9992 15.5566 17 14.7 17V19ZM18.282 15.908C18.0903 16.2843 17.7843 16.5903 17.408 16.782L18.316 18.564C19.0686 18.1805 19.6805 17.5686 20.064 16.816L18.282 15.908ZM14.7 6C15.5566 6 16.1389 6.00078 16.589 6.03755C17.0274 6.07337 17.2516 6.1383 17.408 6.21799L18.316 4.43597C17.8306 4.18868 17.3139 4.09012 16.7518 4.04419C16.2014 3.99922 15.5236 4 14.7 4V6ZM17.408 6.21799C17.7843 6.40973 18.0903 6.71569 18.282 7.09202L20.064 6.18404C19.6805 5.43139 19.0686 4.81947 18.316 4.43597L17.408 6.21799ZM12.3 4C11.4764 4 10.7986 3.99922 10.2482 4.04419C9.68608 4.09012 9.16937 4.18868 8.68404 4.43597L9.59202 6.21799C9.74842 6.1383 9.97262 6.07337 10.411 6.03755C10.8611 6.00078 11.4434 6 12.3 6V4ZM8.68404 4.43597C7.93139 4.81947 7.31947 5.43139 6.93597 6.18404L8.71799 7.09202C8.90973 6.71569 9.21569 6.40973 9.59202 6.21799L8.68404 4.43597ZM8.7 13L18.3 13V11L8.7 11L8.7 13ZM8.50167 9.00695C8.51007 7.79825 8.57273 7.3771 8.71799 7.09202L6.93597 6.18404C6.54042 6.96036 6.50951 7.87189 6.50172 8.99305L8.50167 9.00695ZM20.4983 8.99305C20.4905 7.87189 20.4596 6.96036 20.064 6.18404L18.282 7.09202C18.4273 7.3771 18.4899 7.79825 18.4983 9.00695L20.4983 8.99305ZM20.5 13.2C20.5 13.0524 20.5031 12.8622 20.4754 12.6871L18.5 13C18.4965 12.9781 18.4978 12.9724 18.4988 13.0086C18.4999 13.0479 18.5 13.1017 18.5 13.2H20.5ZM18.3 13C18.3983 13 18.4521 13.0001 18.4914 13.0012C18.5276 13.0022 18.5219 13.0035 18.5 13L18.8129 11.0246C18.6378 10.9969 18.4476 11 18.3 11V13ZM20.4754 12.6871C20.3398 11.8313 19.6687 11.1602 18.8129 11.0246L18.5 13V13L20.4754 12.6871ZM8.5 13.2C8.5 13.1017 8.50009 13.0479 8.50116 13.0086C8.50216 12.9724 8.50348 12.9781 8.5 13L6.52462 12.6871C6.4969 12.8622 6.5 13.0524 6.5 13.2H8.5ZM8.7 11C8.55241 11 8.36219 10.9969 8.18713 11.0246L8.5 13C8.47805 13.0035 8.47239 13.0022 8.50865 13.0012C8.54794 13.0001 8.60168 13 8.7 13L8.7 11ZM8.5 13H8.5L8.18713 11.0246C7.33135 11.1602 6.66017 11.8313 6.52462 12.6871L8.5 13Z" fill="white"/>
</svg>
