<svg width="7" height="11" viewBox="0 0 7 11" fill="none" xmlns="http://www.w3.org/2000/svg">
<path d="M1.02567 3.10466C0.462683 3.10466 -0.0125702 2.63118 0.158491 2.09481C0.311369 1.61546 0.574182 1.20686 0.94693 0.869007C1.57822 0.289669 2.44259 0 3.54006 0C4.5744 0 5.41207 0.267387 6.05307 0.802161C6.68436 1.33198 7 2.02273 7 2.87441C7 3.9291 6.4804 4.7684 5.44121 5.3923C4.9556 5.6795 4.62782 5.93698 4.45786 6.16475C4.3844 6.26319 4.33195 6.36811 4.29454 6.47737C4.11896 6.99018 3.7635 7.4497 3.22146 7.4497C2.69233 7.4497 2.22636 7.02955 2.25846 6.50139C2.27769 6.18518 2.33932 5.87596 2.49844 5.58541C2.70239 5.22395 3.05931 4.88971 3.5692 4.58271C4.04024 4.29552 4.36073 4.03804 4.5307 3.81026C4.70551 3.58249 4.79292 3.29282 4.79292 2.94126C4.79292 2.58474 4.66667 2.29259 4.41415 2.06482C4.15678 1.83705 3.82171 1.72316 3.40895 1.72316C2.99133 1.72316 2.65383 1.84943 2.39646 2.10196C2.3561 2.14078 2.31861 2.18174 2.28398 2.22483C1.95049 2.63978 1.55802 3.10466 1.02567 3.10466ZM3.26327 11C2.93306 11 2.65383 10.8861 2.4256 10.6583C2.19251 10.4355 2.07596 10.1607 2.07596 9.8339C2.07596 9.50709 2.19251 9.2298 2.4256 9.00203C2.65383 8.7792 2.93306 8.66779 3.26327 8.66779C3.59348 8.66779 3.87513 8.7792 4.10822 9.00203C4.34131 9.2298 4.45786 9.50709 4.45786 9.8339C4.45786 10.1607 4.34131 10.4355 4.10822 10.6583C3.87513 10.8861 3.59348 11 3.26327 11Z" fill="#D6D6D6"/>
</svg>
