<svg width="27" height="24" viewBox="0 0 27 24" fill="none" xmlns="http://www.w3.org/2000/svg">
<path d="M26.3334 11C26.3334 10.4477 25.8857 10 25.3334 10C24.7811 10 24.3334 10.4477 24.3334 11H26.3334ZM2.33337 11C2.33337 10.4477 1.88566 10 1.33337 10C0.781089 10 0.333374 10.4477 0.333374 11H2.33337ZM4.60943 22.346L5.06342 21.455H5.06342L4.60943 22.346ZM1.98733 19.7239L1.09633 20.1779H1.09633L1.98733 19.7239ZM24.6794 19.7239L23.7884 19.27L24.6794 19.7239ZM22.0573 22.346L22.5113 23.237L22.0573 22.346ZM14.3334 1C14.3334 0.447715 13.8857 0 13.3334 0C12.7811 0 12.3334 0.447715 12.3334 1H14.3334ZM13.3334 16L12.6263 16.7071C13.0168 17.0976 13.65 17.0976 14.0405 16.7071L13.3334 16ZM18.0405 12.7071C18.431 12.3166 18.431 11.6834 18.0405 11.2929C17.65 10.9024 17.0168 10.9024 16.6263 11.2929L18.0405 12.7071ZM10.0405 11.2929C9.64996 10.9024 9.01679 10.9024 8.62627 11.2929C8.23574 11.6834 8.23574 12.3166 8.62627 12.7071L10.0405 11.2929ZM24.3334 11V13.4H26.3334V11H24.3334ZM15.7334 22H10.9334V24H15.7334V22ZM2.33337 13.4V11H0.333374V13.4H2.33337ZM10.9334 22C9.23672 22 8.02436 21.9992 7.07402 21.9216C6.13535 21.8449 5.54069 21.6982 5.06342 21.455L4.15544 23.237C4.96164 23.6478 5.8488 23.8281 6.91115 23.9149C7.96183 24.0008 9.26972 24 10.9334 24V22ZM0.333374 13.4C0.333374 15.0637 0.332596 16.3715 0.41844 17.4222C0.505238 18.4846 0.685547 19.3717 1.09633 20.1779L2.87834 19.27C2.63516 18.7927 2.48849 18.198 2.4118 17.2594C2.33415 16.309 2.33337 15.0967 2.33337 13.4H0.333374ZM5.06342 21.455C4.12261 20.9757 3.35771 20.2108 2.87834 19.27L1.09633 20.1779C1.76744 21.4951 2.83831 22.5659 4.15544 23.237L5.06342 21.455ZM24.3334 13.4C24.3334 15.0967 24.3326 16.309 24.2549 17.2594C24.1783 18.198 24.0316 18.7927 23.7884 19.27L25.5704 20.1779C25.9812 19.3717 26.1615 18.4846 26.2483 17.4222C26.3342 16.3715 26.3334 15.0637 26.3334 13.4H24.3334ZM15.7334 24C17.397 24 18.7049 24.0008 19.7556 23.9149C20.8179 23.8281 21.7051 23.6478 22.5113 23.237L21.6033 21.455C21.1261 21.6982 20.5314 21.8449 19.5927 21.9216C18.6424 21.9992 17.43 22 15.7334 22V24ZM23.7884 19.27C23.309 20.2108 22.5441 20.9757 21.6033 21.455L22.5113 23.237C23.8284 22.5659 24.8993 21.4951 25.5704 20.1779L23.7884 19.27ZM12.3334 1V16H14.3334V1H12.3334ZM14.0405 16.7071L18.0405 12.7071L16.6263 11.2929L12.6263 15.2929L14.0405 16.7071ZM14.0405 15.2929L10.0405 11.2929L8.62627 12.7071L12.6263 16.7071L14.0405 15.2929Z" fill="white"/>
</svg>
