<svg width="26" height="23" viewBox="0 0 26 23" fill="none" xmlns="http://www.w3.org/2000/svg">
<path class="svg-fill" opacity="0.7" d="M25.5 10.5C25.5 10.2239 25.2761 10 25 10C24.7239 10 24.5 10.2239 24.5 10.5H25.5ZM1.5 10.5C1.5 10.2239 1.27614 10 1 10C0.723858 10 0.5 10.2239 0.5 10.5H1.5ZM4.27606 21.846L4.50305 21.4005L4.27606 21.846ZM1.65396 19.2239L1.20846 19.4509H1.20846L1.65396 19.2239ZM24.346 19.2239L23.9005 18.9969L24.346 19.2239ZM21.7239 21.846L21.9509 22.2915L21.7239 21.846ZM13.5 0.5C13.5 0.223858 13.2761 0 13 0C12.7239 0 12.5 0.223858 12.5 0.5L13.5 0.5ZM13 15.5L12.6464 15.8536C12.8417 16.0488 13.1583 16.0488 13.3536 15.8536L13 15.5ZM17.3536 11.8536C17.5488 11.6583 17.5488 11.3417 17.3536 11.1464C17.1583 10.9512 16.8417 10.9512 16.6464 11.1464L17.3536 11.8536ZM9.35355 11.1464C9.15829 10.9512 8.84171 10.9512 8.64645 11.1464C8.45118 11.3417 8.45118 11.6583 8.64645 11.8536L9.35355 11.1464ZM24.5 10.5L24.5 12.9H25.5L25.5 10.5H24.5ZM15.4 22L10.6 22V23L15.4 23V22ZM1.5 12.9L1.5 10.5H0.5L0.5 12.9H1.5ZM10.6 22C8.91159 22 7.67536 21.9996 6.69993 21.9199C5.73034 21.8407 5.06255 21.6856 4.50305 21.4005L4.04906 22.2915C4.77303 22.6604 5.58706 22.8323 6.6185 22.9166C7.64409 23.0004 8.92809 23 10.6 23V22ZM0.5 12.9C0.5 14.5719 0.499611 15.8559 0.583406 16.8815C0.667677 17.9129 0.839577 18.727 1.20846 19.4509L2.09946 18.9969C1.81438 18.4374 1.6593 17.7697 1.58008 16.8001C1.50039 15.8246 1.5 14.5884 1.5 12.9H0.5ZM4.50305 21.4005C3.46816 20.8732 2.62677 20.0318 2.09946 18.9969L1.20846 19.4509C1.83163 20.674 2.82601 21.6684 4.04906 22.2915L4.50305 21.4005ZM24.5 12.9C24.5 14.5884 24.4996 15.8246 24.4199 16.8001C24.3407 17.7697 24.1856 18.4374 23.9005 18.9969L24.7915 19.4509C25.1604 18.727 25.3323 17.9129 25.4166 16.8815C25.5004 15.8559 25.5 14.5719 25.5 12.9H24.5ZM15.4 23C17.0719 23 18.3559 23.0004 19.3815 22.9166C20.4129 22.8323 21.227 22.6604 21.9509 22.2915L21.4969 21.4005C20.9374 21.6856 20.2697 21.8407 19.3001 21.9199C18.3246 21.9996 17.0884 22 15.4 22V23ZM23.9005 18.9969C23.3732 20.0318 22.5318 20.8732 21.4969 21.4005L21.9509 22.2915C23.174 21.6684 24.1684 20.674 24.7915 19.4509L23.9005 18.9969ZM12.5 0.5L12.5 15.5H13.5L13.5 0.5L12.5 0.5ZM13.3536 15.8536L17.3536 11.8536L16.6464 11.1464L12.6464 15.1464L13.3536 15.8536ZM13.3536 15.1464L9.35355 11.1464L8.64645 11.8536L12.6464 15.8536L13.3536 15.1464Z" fill="white"/>
</svg>
