<svg width="15" height="15" viewBox="0 0 15 15" fill="none" xmlns="http://www.w3.org/2000/svg">
<path fill-rule="evenodd" clip-rule="evenodd" d="M11.6834 10.0337C13.1841 7.76871 12.9366 4.68702 10.941 2.69145C8.66297 0.413396 4.96951 0.413396 2.69145 2.69145C0.413396 4.96951 0.413396 8.66297 2.69145 10.941C4.68697 12.9365 7.76855 13.184 10.0335 11.6835L13.0504 14.7004C13.4409 15.0909 14.074 15.0909 14.4646 14.7004L14.7003 14.4647C15.0908 14.0742 15.0908 13.441 14.7003 13.0505L11.6834 10.0337ZM4.34137 4.34137C5.70821 2.97454 7.92428 2.97454 9.29112 4.34137C10.658 5.70821 10.658 7.92428 9.29112 9.29112C7.92428 10.658 5.70821 10.658 4.34137 9.29112C2.97454 7.92428 2.97454 5.70821 4.34137 4.34137Z" fill="#D6D6D6"/>
</svg>
