<svg width="26" height="24" viewBox="0 0 26 24" fill="none" xmlns="http://www.w3.org/2000/svg">
<path d="M-8.74228e-07 13C-8.25945e-07 13.5523 0.447715 14 0.999999 14C1.55228 14 2 13.5523 2 13L-8.74228e-07 13ZM24 13C24 13.5523 24.4477 14 25 14C25.5523 14 26 13.5523 26 13L24 13ZM21.7239 1.65396L21.27 2.54497L21.27 2.54497L21.7239 1.65396ZM24.346 4.27606L25.237 3.82207L25.237 3.82207L24.346 4.27606ZM1.65396 4.27606L2.54497 4.73005L1.65396 4.27606ZM4.27605 1.65396L3.82206 0.762957L4.27605 1.65396ZM12 23C12 23.5523 12.4477 24 13 24C13.5523 24 14 23.5523 14 23L12 23ZM13 8L13.7071 7.29289C13.3166 6.90237 12.6834 6.90237 12.2929 7.29289L13 8ZM8.29289 11.2929C7.90237 11.6834 7.90237 12.3166 8.29289 12.7071C8.68342 13.0976 9.31658 13.0976 9.70711 12.7071L8.29289 11.2929ZM16.2929 12.7071C16.6834 13.0976 17.3166 13.0976 17.7071 12.7071C18.0976 12.3166 18.0976 11.6834 17.7071 11.2929L16.2929 12.7071ZM2 13L2 10.6L-1.08404e-06 10.6L-8.74228e-07 13L2 13ZM10.6 2L15.4 2L15.4 8.39259e-07L10.6 1.25889e-06L10.6 2ZM24 10.6L24 13L26 13L26 10.6L24 10.6ZM15.4 2C17.0967 2 18.309 2.00078 19.2594 2.07842C20.198 2.15512 20.7927 2.30179 21.27 2.54497L22.1779 0.762955C21.3717 0.352173 20.4846 0.171864 19.4222 0.0850663C18.3715 -0.000777619 17.0637 6.93817e-07 15.4 8.39259e-07L15.4 2ZM26 10.6C26 8.93634 26.0008 7.62846 25.9149 6.57778C25.8281 5.51543 25.6478 4.62827 25.237 3.82207L23.455 4.73005C23.6982 5.20732 23.8449 5.80197 23.9216 6.74064C23.9992 7.69099 24 8.90334 24 10.6L26 10.6ZM21.27 2.54497C22.2108 3.02433 22.9757 3.78924 23.455 4.73005L25.237 3.82207C24.5659 2.50493 23.4951 1.43407 22.1779 0.762955L21.27 2.54497ZM2 10.6C2 8.90334 2.00078 7.69099 2.07842 6.74065C2.15512 5.80198 2.30179 5.20732 2.54497 4.73005L0.762953 3.82207C0.352171 4.62827 0.171862 5.51543 0.0850644 6.57778C-0.000779542 7.62846 -1.22948e-06 8.93635 -1.08404e-06 10.6L2 10.6ZM10.6 1.25889e-06C8.93634 1.40433e-06 7.62846 -0.00077668 6.57778 0.0850675C5.51542 0.171865 4.62827 0.352175 3.82206 0.762957L4.73005 2.54497C5.20731 2.30179 5.80197 2.15512 6.74064 2.07843C7.69099 2.00078 8.90334 2 10.6 2L10.6 1.25889e-06ZM2.54497 4.73005C3.02433 3.78924 3.78924 3.02434 4.73005 2.54497L3.82206 0.762957C2.50493 1.43407 1.43406 2.50494 0.762953 3.82207L2.54497 4.73005ZM14 23L14 8L12 8L12 23L14 23ZM12.2929 7.29289L8.29289 11.2929L9.70711 12.7071L13.7071 8.70711L12.2929 7.29289ZM12.2929 8.70711L16.2929 12.7071L17.7071 11.2929L13.7071 7.29289L12.2929 8.70711Z" fill="white"/>
</svg>
