<svg width="26" height="23" viewBox="0 0 26 23" fill="none" xmlns="http://www.w3.org/2000/svg">
<path class="svg-fill" opacity="0.7" d="M0.499999 12.5C0.499999 12.7761 0.723857 13 0.999999 13C1.27614 13 1.5 12.7761 1.5 12.5L0.499999 12.5ZM24.5 12.5C24.5 12.7761 24.7239 13 25 13C25.2761 13 25.5 12.7761 25.5 12.5L24.5 12.5ZM21.7239 1.15396L21.4969 1.59946L21.7239 1.15396ZM24.346 3.77606L24.7915 3.54906L24.7915 3.54906L24.346 3.77606ZM1.65396 3.77606L2.09946 4.00306L1.65396 3.77606ZM4.27605 1.15396L4.04906 0.70846L4.27605 1.15396ZM12.5 22.5C12.5 22.7761 12.7239 23 13 23C13.2761 23 13.5 22.7761 13.5 22.5L12.5 22.5ZM13 7.5L13.3536 7.14645C13.1583 6.95119 12.8417 6.95119 12.6464 7.14645L13 7.5ZM8.64645 11.1464C8.45118 11.3417 8.45118 11.6583 8.64645 11.8536C8.84171 12.0488 9.15829 12.0488 9.35355 11.8536L8.64645 11.1464ZM16.6464 11.8536C16.8417 12.0488 17.1583 12.0488 17.3536 11.8536C17.5488 11.6583 17.5488 11.3417 17.3536 11.1464L16.6464 11.8536ZM1.5 12.5L1.5 10.1L0.499999 10.1L0.499999 12.5L1.5 12.5ZM10.6 1L15.4 1L15.4 8.39259e-07L10.6 1.25889e-06L10.6 1ZM24.5 10.1L24.5 12.5L25.5 12.5L25.5 10.1L24.5 10.1ZM15.4 1C17.0884 1 18.3246 1.00039 19.3001 1.08008C20.2697 1.1593 20.9374 1.31438 21.4969 1.59946L21.9509 0.708458C21.227 0.339577 20.4129 0.167677 19.3815 0.0834069C18.3559 -0.000388518 17.0719 6.93096e-07 15.4 8.39259e-07L15.4 1ZM25.5 10.1C25.5 8.42809 25.5004 7.14409 25.4166 6.1185C25.3323 5.08706 25.1604 4.27303 24.7915 3.54906L23.9005 4.00305C24.1856 4.56256 24.3407 5.23034 24.4199 6.19993C24.4996 7.17536 24.5 8.41159 24.5 10.1L25.5 10.1ZM21.4969 1.59946C22.5318 2.12677 23.3732 2.96816 23.9005 4.00305L24.7915 3.54906C24.1684 2.32601 23.174 1.33163 21.9509 0.708458L21.4969 1.59946ZM1.5 10.1C1.5 8.41159 1.50039 7.17536 1.58008 6.19993C1.6593 5.23034 1.81438 4.56256 2.09946 4.00306L1.20846 3.54906C0.839575 4.27303 0.667675 5.08707 0.583405 6.1185C0.49961 7.14409 0.499999 8.4281 0.499999 10.1L1.5 10.1ZM10.6 1.25889e-06C8.92809 1.40505e-06 7.64409 -0.000387582 6.61849 0.0834081C5.58706 0.167679 4.77303 0.339578 4.04906 0.70846L4.50305 1.59947C5.06255 1.31439 5.73033 1.15931 6.69993 1.08009C7.67535 1.00039 8.91159 1 10.6 1L10.6 1.25889e-06ZM2.09946 4.00306C2.62676 2.96816 3.46816 2.12677 4.50305 1.59947L4.04906 0.70846C2.82601 1.33164 1.83163 2.32601 1.20846 3.54906L2.09946 4.00306ZM13.5 22.5L13.5 7.5L12.5 7.5L12.5 22.5L13.5 22.5ZM12.6464 7.14645L8.64645 11.1464L9.35355 11.8536L13.3536 7.85355L12.6464 7.14645ZM12.6464 7.85355L16.6464 11.8536L17.3536 11.1464L13.3536 7.14645L12.6464 7.85355Z" fill="white"/>
</svg>
