<svg width="26" height="28" viewBox="0 0 26 28" fill="none" xmlns="http://www.w3.org/2000/svg">
<path d="M9.50768 23.5824L10.2907 25.2912C10.5235 25.7999 10.9033 26.2321 11.3842 26.5354C11.8652 26.8387 12.4264 27.0001 13 27C13.5736 27.0001 14.1348 26.8387 14.6158 26.5354C15.0967 26.2321 15.4765 25.7999 15.7093 25.2912L16.4923 23.5824C16.7711 22.9761 17.2399 22.4706 17.8321 22.138C18.428 21.8045 19.1174 21.6624 19.8015 21.7321L21.7174 21.93C22.2877 21.9885 22.8633 21.8853 23.3743 21.6327C23.8853 21.3802 24.3098 20.9892 24.5964 20.5072C24.8834 20.0255 25.0201 19.4734 24.99 18.9177C24.9598 18.3621 24.7642 17.8269 24.4267 17.3771L23.2924 15.8648C22.8885 15.3223 22.6727 14.6693 22.6761 14C22.676 13.3326 22.8938 12.6823 23.2983 12.1424L24.4327 10.6301C24.7701 10.1803 24.9658 9.64509 24.9959 9.08948C25.026 8.53386 24.8893 7.9817 24.6024 7.5C24.3158 7.01801 23.8913 6.62704 23.3802 6.3745C22.8692 6.12195 22.2937 6.01869 21.7234 6.07722L19.8075 6.27511C19.1233 6.34483 18.434 6.20276 17.838 5.86922C17.2447 5.53473 16.7757 5.02657 16.4983 4.41756L15.7093 2.70878C15.4765 2.20012 15.0967 1.76793 14.6158 1.46462C14.1348 1.16131 13.5736 0.999909 13 1C12.4264 0.999909 11.8652 1.16131 11.3842 1.46462C10.9033 1.76793 10.5235 2.20012 10.2907 2.70878L9.50768 4.41756C9.23025 5.02657 8.76126 5.53473 8.16791 5.86922C7.572 6.20276 6.88263 6.34483 6.19845 6.27511L4.27663 6.07722C3.70634 6.01869 3.13078 6.12195 2.61977 6.3745C2.10875 6.62704 1.68421 7.01801 1.39762 7.5C1.11067 7.9817 0.973968 8.53386 1.00409 9.08948C1.03422 9.64509 1.22987 10.1803 1.56733 10.6301L2.70166 12.1424C3.10619 12.6823 3.32404 13.3326 3.32391 14C3.32404 14.6674 3.10619 15.3177 2.70166 15.8576L1.56733 17.3699C1.22987 17.8197 1.03422 18.3549 1.00409 18.9105C0.973968 19.4661 1.11067 20.0183 1.39762 20.5C1.68449 20.9817 2.10908 21.3725 2.62002 21.625C3.13097 21.8775 3.70638 21.9809 4.27663 21.9228L6.1925 21.7249C6.87668 21.6552 7.56605 21.7972 8.16196 22.1308C8.75752 22.4643 9.22869 22.9726 9.50768 23.5824Z" stroke="white" stroke-width="2" stroke-linecap="round" stroke-linejoin="round"/>
<path d="M12.9976 17.9C15.2174 17.9 17.0169 16.1539 17.0169 14C17.0169 11.8461 15.2174 10.1 12.9976 10.1C10.7778 10.1 8.97831 11.8461 8.97831 14C8.97831 16.1539 10.7778 17.9 12.9976 17.9Z" stroke="white" stroke-width="2" stroke-linecap="round" stroke-linejoin="round"/>
</svg>
