<svg width="15" height="18" viewBox="0 0 15 18" fill="none" xmlns="http://www.w3.org/2000/svg">
<path fill-rule="evenodd" clip-rule="evenodd" d="M6.75 12.0455C6.75 12.5726 7.19772 13 7.75 13C8.30228 13 8.75 12.5726 8.75 12.0455L8.75 3.45455C8.75 2.92736 8.30228 2.5 7.75 2.5C7.19772 2.5 6.75 2.92736 6.75 3.45455L6.75 12.0455Z" fill="white"/>
<path fill-rule="evenodd" clip-rule="evenodd" d="M3.9165 15.5C3.36422 15.5 2.9165 15.0522 2.9165 14.5L2.9165 11.6666C2.9165 11.1143 2.46879 10.6666 1.9165 10.6666C1.36422 10.6666 0.916504 11.1143 0.916504 11.6666L0.916504 15.5C0.916504 16.6045 1.81194 17.5 2.9165 17.5L12.5832 17.5C13.6877 17.5 14.5832 16.6045 14.5832 15.5L14.5832 11.6666C14.5832 11.1143 14.1355 10.6666 13.5832 10.6666C13.0309 10.6666 12.5832 11.1143 12.5832 11.6666L12.5832 14.5C12.5832 15.0522 12.1355 15.5 11.5832 15.5L3.9165 15.5Z" fill="white"/>
<rect x="7.69043" y="-0.0452881" width="8.16667" height="2.33333" rx="1" transform="rotate(45 7.69043 -0.0452881)" fill="white"/>
<rect x="1.9165" y="5.72876" width="8.16667" height="2.33333" rx="1" transform="rotate(-45 1.9165 5.72876)" fill="white"/>
</svg>
