<svg width="14" height="14" viewBox="0 0 14 14" fill="none" xmlns="http://www.w3.org/2000/svg">
<path fill-rule="evenodd" clip-rule="evenodd" d="M7 0C7.64433 0 8.16667 0.522334 8.16667 1.16667C8.16667 1.811 7.64433 2.33333 7 2.33333C4.42267 2.33333 2.33333 4.42267 2.33333 7C2.33333 9.57733 4.42267 11.6667 7 11.6667C9.57733 11.6667 11.6667 9.57733 11.6667 7C11.6667 6.35567 12.189 5.83333 12.8333 5.83333C13.4777 5.83333 14 6.35567 14 7C14 10.866 10.866 14 7 14C3.13401 14 0 10.866 0 7C0 3.13401 3.13401 0 7 0Z" fill="url(#paint0_linear_3515_23728)"/>
<defs>
<linearGradient id="paint0_linear_3515_23728" x1="-1.75" y1="8.75" x2="15.75" y2="5.25" gradientUnits="userSpaceOnUse">
<stop stop-color="#D6D6D6" stop-opacity="0"/>
<stop offset="0.800347" stop-color="#D6D6D6"/>
<stop offset="1" stop-color="#D6D6D6" stop-opacity="0"/>
</linearGradient>
</defs>
</svg>
